SplineFontDB: 3.0
FontName: Epigraf
FullName: font4527
FamilyName: SVGFont 2
Weight: Regular
Copyright: 
Version: 1.0
ItalicAngle: 0
UnderlinePosition: 0
UnderlineWidth: 0
Ascent: 819
Descent: 205
InvalidEm: 0
sfntRevision: 0x00010000
woffMajor: 1
woffMinor: 0
LayerCount: 2
Layer: 0 0 "Back" 1
Layer: 1 0 "Fore" 0
HasVMetrics: 1
XUID: [1021 437 -521488251 14824285]
StyleMap: 0x0000
FSType: 8
OS2Version: 3
OS2_WeightWidthSlopeOnly: 0
OS2_UseTypoMetrics: 0
CreationTime: 1455662059
ModificationTime: 1461406008
PfmFamily: 17
TTFWeight: 400
TTFWidth: 5
LineGap: 92
VLineGap: 92
Panose: 2 0 5 9 0 0 0 0 0 0
OS2TypoAscent: 819
OS2TypoAOffset: 0
OS2TypoDescent: -205
OS2TypoDOffset: 0
OS2TypoLinegap: 92
OS2WinAscent: 1024
OS2WinAOffset: 0
OS2WinDescent: 84
OS2WinDOffset: 0
HheadAscent: 1024
HheadAOffset: 0
HheadDescent: -84
HheadDOffset: 0
OS2SubXSize: 665
OS2SubYSize: 716
OS2SubXOff: 0
OS2SubYOff: 143
OS2SupXSize: 665
OS2SupYSize: 716
OS2SupXOff: 0
OS2SupYOff: 490
OS2StrikeYSize: 51
OS2StrikeYPos: 265
OS2CapHeight: 735
OS2Vendor: 'PfEd'
OS2CodePages: 00000001.00000000
OS2UnicodeRanges: 00000001.00000000.00000000.00000000
DEI: 91125
LangName: 1033 "" "" "" "FontForge 2.0 : font4527 : 17-2-2016" "" "Version 1.0"
Encoding: UnicodeBmp
UnicodeInterp: none
NameList: AGL For New Fonts
DisplaySize: -128
AntiAlias: 0
FitToEm: 0
WinInfo: 1022 14 6
BeginPrivate: 7
BlueValues 15 [-10 0 951 966]
BlueScale 9 0.0319355
BlueShift 1 0
StdHW 3 [9]
StdVW 3 [9]
StemSnapH 6 [9 12]
StemSnapV 6 [9 12]
EndPrivate
Grid
74.5129394531 1331 m 0
 74.5129394531 -717 l 1024
  Named: "left"
-1014 -79.30078125 m 4
 2058 -79.30078125 l 1028
  Named: "down"
-1024 1039.69921875 m 0
 2048 1039.69921875 l 1024
  Named: "up"
EndSplineSet
BeginChars: 65537 26

StartChar: .notdef
Encoding: 65536 -1 0
Width: 1024
Flags: MW
HStem: 0 51<102 922 102 973> 495 51<102 922 102 102>
VStem: 51 51<51 51 51 495> 922 51<51 495 495 495>
LayerCount: 2
Fore
SplineSet
51 0 m 1
 51 546 l 1
 973 546 l 1
 973 0 l 1
 51 0 l 1
102 51 m 1
 922 51 l 1
 922 495 l 1
 102 495 l 1
 102 51 l 1
EndSplineSet
Validated: 1
EndChar

StartChar: uni0000
Encoding: 0 -1 1
AltUni2: 000000.ffffffff.0
Width: 1024
VWidth: 89
Flags: MW
HStem: 0 1024<0 1000 0 1000>
VStem: 0 1000<0 1024 0 1024>
LayerCount: 2
Fore
SplineSet
0 0 m 1
 0 1024 l 1
 1000 1024 l 1
 1000 0 l 1
 0 0 l 1
EndSplineSet
Validated: 1
EndChar

StartChar: zero
Encoding: 48 48 2
Width: 1020
VWidth: 0
Flags: MW
HStem: 107 7844.55 16173.7 8749.44
VStem: 290.721 0.600006 349.921 0.600006 363.521 0.399994
LayerCount: 2
Fore
SplineSet
490.12890625 1017.48144531 m 0
 528.943359375 1017.47949219 567.208007812 1009.95019531 604.01171875 997.452148438 c 0
 651.450195312 978.936523438 695.9609375 951.682617188 731.869140625 915.444335938 c 0
 779.366210938 869.969726562 818.413085938 814.909179688 844.3828125 754.352539062 c 0
 876.127929688 685.274414062 893.514648438 610.73828125 901.563476562 535.423828125 c 0
 904.873046875 487.235351562 906.088867188 438.2578125 899.1953125 390.309570312 c 0
 888.708007812 297.901367188 860.638671875 206.55078125 812.09765625 127.014648438 c 0
 792.022460938 93.2626953125 766.958984375 63.3125 740.107421875 34.7763671875 c 0
 696.612304688 -5.9892578125 647.078125 -43.1484375 588.87109375 -59.541015625 c 0
 506.752929688 -87.0634765625 414.287109375 -76.21484375 338.677734375 -34.8994140625 c 0
 276.560546875 -0.6435546875 224.151367188 50.109375 184.731445312 108.888671875 c 0
 157.133789062 154.354492188 131.233398438 201.620117188 116.16796875 252.873046875 c 0
 108.25 275.8359375 101.734375 299.580078125 97.0673828125 323.400390625 c 0
 87.6376953125 364.53125 83.9169921875 406.516601562 81.740234375 448.6328125 c 0
 79.712890625 495.33203125 84.0126953125 542.428710938 91.1142578125 588.5625 c 0
 96.7197265625 621.04296875 104.202148438 653.087890625 114.206054688 684.44921875 c 0
 128.896484375 734.465820312 153.403320312 780.619140625 178.72265625 825.978515625 c 1
 203.233398438 860.327148438 228.65234375 894.35546875 260.606445312 922.137695312 c 0
 318.342773438 976.209960938 394.448242188 1010.63964844 473.461914062 1017.01269531 c 0
 479.02734375 1017.328125 484.583984375 1017.48144531 490.12890625 1017.48144531 c 0
488.443359375 1011.16992188 m 0
 483.602539062 1011.14550781 478.7578125 1011.00585938 473.912109375 1010.75195312 c 0
 396.189453125 1004.56152344 321.17578125 970.25 264.444335938 917.084960938 c 0
 236.4921875 892.87109375 214.061523438 863.568359375 192.040039062 834.002929688 c 0
 166.452148438 792.8125 142.3984375 749.498046875 127.658203125 703.072265625 c 0
 113.205078125 665.490234375 104.422851562 626.203125 97.1240234375 586.67578125 c 0
 89.6171875 534.805664062 84.423828125 481.864257812 89.419921875 429.477539062 c 0
 90.04296875 392.024414062 97.58984375 355.521484375 104.077148438 318.850585938 c 0
 116.9375 269.586914062 130.35546875 219.641601562 155.125 174.666015625 c 0
 183.415039062 114.76171875 223.556640625 60.4287109375 274.0078125 17.43359375 c 0
 324.2421875 -25.5458984375 385.166015625 -56.6513671875 451.139648438 -65.5693359375 c 0
 529.100585938 -76.40234375 611.413085938 -55.845703125 675.333984375 -10.044921875 c 0
 716.775390625 17.642578125 751.712890625 53.69140625 781.924804688 93.0439453125 c 0
 815.150390625 138.602539062 840.538085938 189.092773438 859.46875 242.171875 c 0
 882.412109375 309.497070312 895.626953125 380.499023438 897.486328125 451.583007812 c 0
 899.685546875 500.758789062 894.55859375 549.58203125 886.337890625 598.012695312 c 0
 868.161132812 693.315429688 832.481445312 787.536132812 770.982421875 863.515625 c 0
 747.213867188 892.674804688 720.923828125 920.143554688 690.788085938 942.662109375 c 0
 632.876953125 986.319335938 561.067382812 1011.546875 488.443359375 1011.16992188 c 0
494.915039062 914.418945312 m 0
 496.716796875 914.412109375 498.518554688 914.3828125 500.322265625 914.334960938 c 0
 512.008789062 912.796875 523.908203125 912.228515625 535.501953125 910.147460938 c 0
 615.513671875 897.6953125 684.146484375 838.485351562 714.655273438 764.465820312 c 0
 728.65625 724.849609375 734.479492188 682.591796875 740.518554688 641.166015625 c 0
 748.89453125 568.4765625 754.1640625 495.39453125 750.838867188 422.200195312 c 0
 746.350585938 359.38671875 742.796875 296.084960938 729.108398438 234.456054688 c 1
 723.185546875 187.766601562 701.83203125 143.896484375 671.005859375 108.649414062 c 0
 635.040039062 65.7646484375 582.075195312 40.2333984375 527.506835938 31.1123046875 c 0
 478.521484375 22.0576171875 428.494140625 34.044921875 384.046875 54.841796875 c 0
 322.4375 85.1337890625 279.599609375 145.029296875 260.861328125 210.045898438 c 1
 237.958007812 313.134765625 232.369140625 419.421875 235.736328125 524.779296875 c 0
 237.762695312 595.616210938 246.192382812 666.506835938 261.502929688 735.614257812 c 0
 275.639648438 783.225585938 302.90625 827.176757812 340.8671875 859.329101562 c 0
 383.868164062 895.145507812 439.064453125 914.653320312 494.915039062 914.418945312 c 0
490.323242188 908.124023438 m 0
 488.415039062 908.12890625 486.50390625 908.110351562 484.59375 908.072265625 c 0
 412.255859375 905.139648438 341.469726562 867.450195312 302.180664062 806.185546875 c 1
 260.624023438 750.782226562 257.564453125 679.327148438 247.8359375 613.33984375 c 0
 236.4453125 491.299804688 238.686523438 367.544921875 259.568359375 246.609375 c 0
 271.548828125 164.51171875 323.021484375 84.4189453125 402.360351562 53.8623046875 c 0
 451.086914062 32.921875 507.203125 27.619140625 557.864257812 44.91015625 c 1
 625.787109375 61.91796875 680.188476562 114.7578125 707.55078125 178.084960938 c 0
 722.104492188 215.770507812 726.891601562 256.787109375 733.74609375 296.454101562 c 0
 741.528320312 367.650390625 747.48828125 439.06640625 745.051757812 510.752929688 c 0
 741.260742188 575.11328125 736.891601562 639.84765625 723.797851562 703.079101562 c 1
 717.416992188 757.224609375 691.086914062 807.911132812 651.533203125 845.075195312 c 0
 608.73828125 886.750976562 549.55078125 907.963867188 490.323242188 908.124023438 c 0
810.974609375 495.153320312 m 0
 824.079101562 495.400390625 833.487304688 486.407226562 836.26953125 473.267578125 c 0
 837.51953125 453.811523438 813.775390625 439.512695312 797.912109375 451.764648438 c 0
 779.650390625 462.352539062 786.830078125 491.383789062 806.791992188 494.775390625 c 0
 808.223632812 495.00390625 809.618164062 495.129882812 810.974609375 495.153320312 c 0
173.888671875 495.112304688 m 0
 184.883789062 494.958984375 195.096679688 488.315429688 196.916992188 476.580078125 c 0
 202.951171875 456.061523438 177.33984375 438.73828125 160.596679688 451.556640625 c 0
 142.012695312 461.889648438 149.016601562 491.388671875 169.150390625 494.776367188 c 0
 170.73046875 495.0234375 172.317382812 495.1328125 173.888671875 495.112304688 c 0
174.862304688 489.234375 m 0
 173.299804688 489.225585938 171.637695312 488.982421875 169.884765625 488.470703125 c 0
 147.125976562 482.040039062 155.224609375 450.545898438 177.456054688 453.970703125 c 0
 197.829101562 456.903320312 193.284179688 489.333007812 174.862304688 489.234375 c 0
812.284179688 489.161132812 m 1
 810.780273438 489.15625 809.1875 488.9375 807.525390625 488.47265625 c 2
 807.07421875 488.249023438 l 1
 804.622070312 487.040039062 l 2
 783.334960938 479.588867188 797.278320312 447.133789062 817.130859375 454.6640625 c 0
 836.30859375 459.588867188 830.052734375 489.225585938 812.284179688 489.161132812 c 1
 812.284179688 489.161132812 l 1
EndSplineSet
Validated: 33
EndChar

StartChar: one
Encoding: 49 49 3
Width: 658
VWidth: 89
Flags: MW
HStem: -165.502 11.4704 -81.7676 11.4704 -68.0031 21G 560.575 11.4704 965.481 11.4704
VStem: 111.326 11.4704 332.705 11.4704 500.173 11.4704
LayerCount: 2
Fore
SplineSet
327.603515625 832.82421875 m 0
 305.134765625 831.897460938 303.828125 868.931640625 325.991210938 868.983398438 c 0
 346.8984375 867.60546875 351.20703125 835.505859375 327.603515625 832.82421875 c 0
326.295898438 875.221679688 m 2
 326.189453125 875.228515625 l 1
 326.083007812 875.228515625 l 2
 295.221679688 875.157226562 297.053710938 825.314453125 327.973632812 826.590820312 c 2
 328.084960938 826.594726562 l 1
 328.196289062 826.607421875 l 2
 359.59765625 830.173828125 354.618164062 873.352539062 326.295898438 875.221679688 c 2
408.712890625 27.9423828125 m 0
 404.530273438 91.580078125 408.134765625 157.299804688 406.930664062 222.01171875 c 2
 406.930664062 990.7421875 l 1
 406.887695312 990.99609375 l 2
 404.4765625 1005.58886719 391.051757812 1011.54589844 379.9453125 1014.62207031 c 2
 379.450195312 1014.75976562 l 1
 378.9375 1014.73144531 l 2
 341.90234375 1012.65722656 302.793945312 1019.17578125 265.44140625 1011.1796875 c 2
 265.172851562 1011.12109375 l 1
 264.918945312 1011.01855469 l 2
 239.079101562 1000.51269531 246.719726562 966.796875 236.163085938 950.83203125 c 2
 235.944335938 950.498046875 l 1
 235.813476562 950.120117188 l 2
 205.033203125 860.161132812 139.7265625 782.454101562 56.1279296875 737.055664062 c 2
 55.89453125 736.928710938 l 1
 55.685546875 736.763671875 l 2
 28.7734375 715.538085938 44.1728515625 675.665039062 40.3984375 649.952148438 c 2
 40.3369140625 649.541992188 l 1
 40.3857421875 649.1328125 l 2
 43.7978515625 620.125976562 73.7216796875 617.180664062 94.9638671875 619.891601562 c 0
 119.2109375 620.709960938 150.099609375 613.26171875 167.248046875 639.98046875 c 1
 246.984375 719.717773438 l 1
 246.984375 27.8466796875 l 2
 243.985351562 2.861328125 216.1796875 13.1298828125 195.157226562 7.5087890625 c 2
 194.9140625 7.4443359375 l 1
 194.684570312 7.3408203125 l 2
 158.456054688 -8.9208984375 163.322265625 -67.2998046875 201.749023438 -76.125 c 2
 202.094726562 -76.2041015625 l 1
 457.481445312 -76.2041015625 l 1
 458.063476562 -75.9580078125 l 2
 494.2109375 -60.6982421875 492.529296875 -0.4951171875 454.106445312 9.47265625 c 2
 453.614257812 9.599609375 l 1
 453.106445312 9.5654296875 l 2
 434.173828125 8.259765625 411.127929688 7.3544921875 408.712890625 27.9423828125 c 0
378.791015625 1008.46875 m 0
 388.658203125 1005.52539062 398.966796875 1000.62207031 400.727539062 989.977539062 c 1
 399.018554688 1010.79101562 400.685546875 1011.36914062 400.685546875 990.486328125 c 2
 400.685546875 221.952148438 l 2
 401.887695312 157.4140625 398.267578125 91.6396484375 402.486328125 27.4541015625 c 2
 402.493164062 27.3740234375 l 1
 402.500976562 27.2958984375 l 2
 405.666015625 0.328125 435.102539062 2.080078125 453.021484375 3.2998046875 c 1
 483.287109375 -5.3505859375 487.322265625 -55.939453125 456.204101562 -69.9599609375 c 1
 202.796875 -69.9599609375 l 1
 172.161132812 -62.1533203125 165.370117188 -13.55078125 197.015625 1.546875 c 0
 211.841796875 5.0400390625 249.48046875 -3.7646484375 253.206054688 27.2880859375 c 2
 253.228515625 27.4716796875 l 1
 253.228515625 734.79296875 l 1
 162.23828125 643.802734375 l 1
 162.0390625 643.46875 l 2
 148.146484375 620.150390625 120.625976562 627.005859375 94.6083984375 626.127929688 c 2
 94.462890625 626.122070312 l 1
 94.3173828125 626.104492188 l 2
 73.3896484375 623.43359375 50.158203125 626.203125 46.634765625 649.422851562 c 1
 50.3486328125 678.181640625 37.2412109375 714.321289062 59.1083984375 731.567382812 c 1
 143.982421875 777.659179688 209.7578125 855.508789062 241.583007812 947.690429688 c 1
 254.173828125 968.2578125 246.95703125 997.02734375 266.747070312 1005.07324219 c 0
 302.615234375 1012.75097656 339.672851562 1006.45507812 378.791015625 1008.46875 c 0
353.201171875 85.5986328125 m 1
 347.544921875 116.250976562 299.006835938 106.201171875 306.516601562 75.154296875 c 1
 302.649414062 95.67578125 303.642578125 96.1572265625 306.458984375 75.466796875 c 0
 310.735351562 44.03515625 363.372070312 56.2626953125 353.201171875 85.5986328125 c 1
347.224609375 83.77734375 m 2
 354.495117188 62.806640625 315.647460938 54.2470703125 312.646484375 76.3095703125 c 2
 312.623046875 76.4677734375 l 1
 312.586914062 76.6220703125 l 2
 307.083984375 99.3701171875 343.013671875 106.403320312 347.104492188 84.232421875 c 2
 347.147460938 84 l 1
 347.224609375 83.77734375 l 2
EndSplineSet
Validated: 37
EndChar

StartChar: two
Encoding: 50 50 4
Width: 1017
VWidth: 89
Flags: HMW
HStem: -74 10 40 10 77 10 802 10 808 12
VStem: 700 12
LayerCount: 2
Fore
SplineSet
690.715820312 877.143554688 m 4xe4
 678.403320312 849.607421875 729.421875 825.780273438 735.043945312 863.959960938 c 4
 739.776367188 889.7578125 700.7890625 900.706054688 690.715820312 877.143554688 c 4xe4
696.409179688 874.653320312 m 4
 703.586914062 891.4453125 732.301757812 883.44921875 728.913085938 864.971679688 c 4
 724.55859375 835.409179688 688.200195312 856.297851562 696.409179688 874.653320312 c 4
427.217773438 8.0732421875 m 0
 431.989257812 -24.1064453125 489.956054688 -11.84765625 468.650390625 24.642578125 c 2
 468.470703125 24.94921875 l 1
 468.227539062 25.208984375 l 2
 453.82421875 40.4638671875 424.702148438 30.5859375 427.217773438 8.0732421875 c 0
433.379882812 8.8740234375 m 0
 431.588867188 24.900390625 452.767578125 31.5732421875 463.471679688 21.1962890625 c 1
 479.40625 -7.80859375 436.526367188 -12.337890625 433.379882812 8.8740234375 c 0
769.889648438 136.572265625 m 0
 766.12890625 118.302734375 759.358398438 109.7265625 746.78125 107.829101562 c 2
 746.78125 107.829101562 307.359375 107.802734375 268.00390625 107.802734375 c 1
 299.985351562 155.788085938 337.963867188 196.1875 380.506835938 233.075195312 c 0
 418.580078125 263.9140625 456.64453125 295.005859375 500.401367188 316.8828125 c 2
 500.522460938 316.944335938 l 1
 500.638671875 317.015625 l 2
 552.96875 349.202148438 613.426757812 365.34765625 668.893554688 393.15234375 c 2
 668.9609375 393.184570312 l 1
 669.029296875 393.22265625 l 2
 751.325195312 439.565429688 819.736328125 512.6328125 852.618164062 602.114257812 c 0
 869.961914062 647.809570312 884.377929688 697.987304688 870.939453125 747.716796875 c 1
 857.225585938 822.296875 817.954101562 893.267578125 758.3046875 940.891601562 c 0
 699.7265625 991.967773438 621.094726562 1017.71582031 543.891601562 1015.83886719 c 0
 480.041015625 1013.21289062 415.944335938 997.037109375 361.580078125 962.353515625 c 0
 314.668945312 933.95703125 273.572265625 895.602539062 242.897460938 849.826171875 c 0
 207.900390625 799.0234375 188.99609375 738.120117188 182.61328125 677.469726562 c 2
 182.568359375 677.049804688 l 1
 182.63671875 676.634765625 l 2
 188.787109375 639.7578125 213.334960938 597.971679688 250.22265625 586.3203125 c 0
 297.918945312 566.66796875 357.852539062 595.591796875 380.217773438 642.265625 c 0
 393.69921875 667.999023438 396.040039062 701.560546875 384.618164062 728.647460938 c 0
 378.311523438 746.266601562 366.317382812 760.354492188 353.135742188 772.594726562 c 2
 352.840820312 772.868164062 l 1
 352.485351562 773.05859375 l 2
 336.282226562 781.708007812 317.66015625 793.84375 299.108398438 794.817382812 c 1
 313.89453125 820.5 331.25 841.999023438 354.64453125 858.9765625 c 2
 354.721679688 859.033203125 l 1
 354.794921875 859.09375 l 2
 425.903320312 917.692382812 537.729492188 915.587890625 607.977539062 856.388671875 c 2
 608.060546875 856.318359375 l 1
 608.147460938 856.255859375 l 2
 651.536132812 824.581054688 677.341796875 773.427734375 685.583984375 720.703125 c 0
 690.8359375 659.596679688 674.958984375 597.086914062 638.615234375 547.38671875 c 0
 619.403320312 521.08203125 594.470703125 498.9375 566.818359375 481.3515625 c 0
 532.805664062 457.966796875 490.403320312 453.522460938 452.803710938 433.494140625 c 1
 405.286132812 416.177734375 363.590820312 386.717773438 323.428710938 357.1875 c 2
 323.35546875 357.131835938 l 1
 323.283203125 357.07421875 l 2
 281.114257812 322.006835938 239.904296875 284.1015625 209.805664062 237.407226562 c 0
 152.29296875 159.609375 121.224609375 59.2060546875 107.985351562 -35.7001953125 c 0
 106.682617188 -49.19140625 98.3798828125 -77.021484375 126.51953125 -68.7822265625 c 1
 754.514648438 -68.7822265625 l 1
 754.938476562 -68.6572265625 l 2
 779.787109375 -61.4287109375 779.685546875 -24.265625 788.90625 -8.55078125 c 2
 789.03125 -8.3369140625 l 1
 789.12109375 -8.1064453125 l 2
 809.6171875 44.5078125 832.045898438 97.060546875 851.454101562 149.940429688 c 2
 851.591796875 150.318359375 l 1
 851.629882812 150.719726562 l 2
 854.267578125 178.950195312 817.250976562 195.95703125 795.521484375 180.868164062 c 1
 795.521484375 180.868164062 770.58984375 148.241210938 769.889648438 136.572265625 c 0
259.645507812 106.383789062 m 2
 256.538085938 101.588867188 l 1
 747.296875 101.588867188 l 2
 764.138671875 104.693359375 771.977539062 115.904296875 776.01953125 135.538085938 c 2
 776.064453125 135.754882812 l 1
 776.078125 135.977539062 l 2
 777.10546875 153.103515625 782.470703125 169.176757812 798.42578125 175.422851562 c 2
 798.766601562 175.557617188 l 1
 799.06640625 175.765625 l 2
 816.774414062 188.061523438 846.78515625 174.024414062 845.481445312 151.701171875 c 1
 826.395507812 99.8056640625 803.811523438 46.7177734375 783.33203125 -5.8505859375 c 1
 792.345703125 12.763671875 794.01171875 12.4326171875 783.546875 -5.40625 c 0
 772.239257812 -24.681640625 773.981445312 -55.765625 753.638671875 -62.568359375 c 1
 125.532226562 -62.568359375 l 1
 125.069335938 -62.716796875 l 2
 105.524414062 -68.9814453125 112.413085938 -54.474609375 114.157226562 -36.4287109375 c 0
 127.255859375 57.4755859375 158.174804688 157.115234375 214.860351562 233.791992188 c 2
 214.920898438 233.872070312 l 1
 214.974609375 233.956054688 l 2
 244.500976562 279.765625 285.240234375 317.357421875 327.255859375 352.296875 c 1
 310.96484375 339.552734375 310.447265625 339.930664062 327.109375 352.182617188 c 0
 367.21484375 381.670898438 408.651367188 410.791992188 455.134765625 427.73046875 c 2
 455.33984375 427.806640625 l 1
 455.532226562 427.908203125 l 2
 491.572265625 447.104492188 534.818359375 451.807617188 570.247070312 476.16796875 c 0
 598.302734375 494.012695312 623.904296875 516.70703125 643.633789062 543.723632812 c 0
 680.931640625 594.73046875 697.138671875 658.834960938 691.764648438 721.340820312 c 2
 691.756835938 721.44921875 l 1
 691.740234375 721.5546875 l 2
 683.298828125 775.5546875 656.84765625 828.395507812 611.809570312 861.2734375 c 1
 628.081054688 848.50390625 627.797851562 847.8125 611.982421875 861.139648438 c 0
 539.432617188 922.280273438 424.392578125 924.499023438 350.844726562 863.887695312 c 1
 367.202148438 876.544921875 367.733398438 876.155273438 350.995117188 864.005859375 c 0
 325.334960938 845.385742188 306.119140625 820.588867188 291.079101562 793.204101562 c 2
 288.385742188 788.30078125 l 1
 293.970703125 788.60546875 l 2
 313.678710938 789.6796875 330.090820312 778.080078125 349.209960938 767.762695312 c 1
 361.357421875 756.340820312 373.030273438 742.583007812 378.796875 726.471679688 c 2
 378.827148438 726.390625 l 1
 378.861328125 726.310546875 l 2
 389.495117188 701.0859375 387.3984375 669.365234375 374.663085938 645.049804688 c 0
 353.68359375 601.274414062 297.03515625 573.75390625 252.46875 592.116210938 c 2
 252.346679688 592.1640625 l 1
 252.220703125 592.205078125 l 2
 218.37890625 602.89453125 195.18359375 641.35546875 188.834960938 677.237304688 c 1
 195.2109375 736.352539062 213.731445312 796.534179688 248.037109375 846.333984375 c 0
 278.2421875 891.408203125 318.540039062 929.036132812 364.861328125 957.075195312 c 0
 418.194335938 991.102539062 481.180664062 1007.04199219 544.094726562 1009.62792969 c 0
 619.7890625 1011.46875 696.844726562 986.237304688 754.321289062 936.120117188 c 0
 812.869140625 889.377929688 851.377929688 819.73828125 864.8515625 746.46875 c 2
 864.874023438 746.341796875 l 1
 864.907226562 746.21875 l 2
 877.766601562 698.63671875 864.073242188 649.806640625 846.797851562 604.287109375 c 0
 814.481445312 516.349609375 747.1640625 444.35546875 665.978515625 398.63671875 c 1
 684.240234375 408.348632812 684.600585938 407.975585938 666.110351562 398.70703125 c 0
 611.41796875 371.291015625 550.728515625 355.118164062 497.384765625 322.307617188 c 1
 515.459960938 332.360351562 516.122070312 331.69140625 497.623046875 322.44140625 c 0
 452.9921875 300.126953125 414.75 268.806640625 376.515625 237.838867188 c 0
 332.1953125 199.408203125 291.604492188 155.729492188 259.645507812 106.383789062 c 2
EndSplineSet
Validated: 37
EndChar

StartChar: three
Encoding: 51 51 5
Width: 992
VWidth: 0
Flags: HMW
HStem: -167.02 7.63473 926.019 7.63473 1119.43 7.63473 1125.79 7.63473
VStem: 179.918 7.63473 342.792 7.63473 888.675 7.63473
LayerCount: 2
Fore
SplineSet
315.407226562 -30.2626953125 m 1xce
 345.470703125 -46.0576171875 378.4765625 -54 410.859375 -61.5341796875 c 0
 410.966796875 -61.5615234375 l 1
 411.076171875 -61.578125 l 0
 467.473632812 -70.6689453125 525.379882812 -66.8623046875 580.931640625 -55.41015625 c 0
 581.037109375 -55.3876953125 l 1
 581.141601562 -55.359375 l 0
 600.81640625 -49.9052734375 617.811523438 -39.5 636.555664062 -34.9873046875 c 0
 636.7734375 -34.935546875 l 1
 636.983398438 -34.8525390625 l 0
 670.725585938 -21.521484375 700.819335938 -0.34765625 728.834960938 21.509765625 c 0
 728.961914062 21.609375 l 1
 729.080078125 21.72265625 l 0
 742.100585938 34.19140625 757.20703125 45.84765625 766.56640625 62.1416015625 c 1
 819.344726562 123.8727489 846.736328125 233.349953676 843.905273438 308.943359375 c 1
 841.6328125 384.581679405 828.85546875 460.467773438 771.826171875 509.7734375 c 5
 749.176757812 543.150390625 699.536132812 565.767420393 672.265625 589.828125 c 0
 672.202148438 589.8671875 l 1
 672.13671875 589.90625 l 0
 645.1015625 605.13671875 614.903320312 618.233398438 586.646484375 627.35546875 c 1
 580.06640625 641.69921875 599.361328125 652.3125 607.313476562 667.83984375 c 1
 685.154296875 774.26171875 762.141601562 877.592773438 838.6875 983.46875 c 0
 838.926757812 983.799804688 l 1
 839.075195312 984.180664062 l 0
 841.481445312 990.323242188 842.962890625 996.087890625 843.5703125 1001.47265625 c 0
 846.64453125 1028.7578125 826.90625 1044.29589844 798.313476562 1047.38378906 c 0
 798.141601562 1047.40136719 l 1
 266.763671875 1047.40136719 l 1
 266.57421875 1047.37890625 l 2
 248.768554688 1045.25 243.302734375 1028.67285156 238.4140625 1016.01269531 c 1
 215.325195312 960.978515625 189.317382812 906.220703125 167.830078125 850.512695312 c 0
 167.661132812 850.073242188 l 1
 167.625 849.606445312 l 0
 166.515625 835.420898438 173.33984375 824.69921875 183.0078125 818.497070312 c 0
 199.53515625 807.892578125 224.111328125 810.200195312 234.342773438 826.321289062 c 1
 254.25 840.764648438 240.727539062 864.998046875 258.227539062 871.155273438 c 0
 258.435546875 871.228515625 l 1
 258.630859375 871.329101562 l 0
 274.024414062 879.254882812 294.3984375 872.521484375 314.313476562 874.918945312 c 1
 618.935546875 874.918945312 l 1
 553.737304688 783.16796875 490.473632812 690.950195312 424.524414062 600.39453125 c 0
 424.118164062 599.8359375 l 1
 423.977539062 599.161132812 l 0
 421.475585938 587.244140625 420.079101562 568.732421875 436.349609375 561.71484375 c 1
 454.498046875 551.909179688 475.72265625 560.575195312 491.291992188 552.404296875 c 0
 491.469726562 552.3125 l 1
 491.65625 552.243164062 l 0
 523.379882812 540.325195312 556.78125 532.330078125 580.39453125 508.477539062 c 0
 580.555664062 508.314453125 l 1
 580.736328125 508.177734375 l 0
 609.537109375 486.3359375 631.725585938 457.215820312 646.732421875 424.359375 c 0
 646.830078125 424.146484375 l 1
 646.95703125 423.94921875 l 0
 658.260742188 406.471679688 658.80859375 382.5234375 665.688476562 362.23828125 c 1
 666.5234375 335.778320312 671.751953125 312.587890625 664.515625 288.754882812 c 0
 664.419921875 288.442382812 l 1
 664.389648438 288.116210938 l 0
 659.03125 218.694131898 619.989257812 153.434217934 585.806640625 106.099609375 c 1
 544.782226562 79.265625 496.866210938 52.916015625 453.638671875 56.685546875 c 0
 453.27734375 56.716796875 l 1
 452.916992188 56.6669921875 l 0
 417.044921875 51.6884765625 374.594726562 60.3154296875 342.662109375 71.6279296875 c 1
 315.318359375 83.0859375 289.561523438 98.4443359375 266.447265625 116.802734375 c 1
 249.461914062 133.232421875 232.775390625 149.091796875 221.17578125 169.0390625 c 0
 221.04296875 169.266601562 l 1
 220.876953125 169.46875 l 0
 216.163085938 175.185546875 208.885742188 186.005859375 208.1796875 189.80078125 c 1
 210.139648438 189.650390625 212.1015625 189.083984375 215.798828125 187.461914062 c 0
 216.291992188 187.245117188 l 1
 216.830078125 187.201171875 l 0
 245.810546875 184.845703125 275.780273438 190.138671875 299.409179688 207.379882812 c 1
 318.086914062 215.15625 326.099609375 231.030273438 336.44921875 243.75 c 0
 336.955078125 244.37109375 l 1
 337.109375 245.15625 l 0
 340.740234375 263.569335938 351.780273438 283.5390625 345.8671875 303.844726562 c 1
 346.0390625 323.700195312 333.581054688 336.758789062 328.236328125 351.688476562 c 0
 327.845703125 352.780273438 l 1
 326.84765625 353.372070312 l 0
 310.799804688 362.866210938 298.254882812 382.399414062 277.404296875 386.862304688 c 1
 254.166992188 399.84375 228.563476562 393.817382812 206.22265625 393.775390625 c 0
 205.676757812 393.774414062 l 1
 205.16015625 393.592773438 l 0
 165.594726562 379.643554688 126.721679688 349.778320312 120.509765625 305.34375 c 1
 113.161132812 286.647460938 119.129882812 279.482421875 118.112304688 263.477539062 c 0
 118.103515625 263.3359375 l 1
 118.107421875 263.193359375 l 0
 119.104492188 223.325195312 124.862304688 182.259765625 142.399414062 146.017578125 c 1
 152.749023438 110.108398438 176.58984375 84.6923828125 197.135742188 57.6533203125 c 0
 197.270507812 57.4765625 l 1
 197.427734375 57.3203125 l 0
 231.951171875 22.935546875 268.244140625 -12.2431640625 315.407226562 -30.2626953125 c 1xce
267.147460938 1040.97460938 m 1
 797.96875 1040.97460938 l 1
 796.899414062 1041.03125 796.55859375 1041.10742188 797.623046875 1040.99316406 c 0
 824.459960938 1038.09667969 839.743164062 1024.91503906 837.182617188 1002.19433594 c 0
 836.637695312 997.357421875 835.766601562 993.612304688 833.243164062 986.909179688 c 1
 757.345703125 881.946289062 678.838867188 776.524414062 601.916992188 671.348632812 c 0
 601.733398438 671.096679688 l 1
 601.6015625 670.814453125 l 0
 596.25390625 659.393554688 569.944335938 642.885742188 581.701171875 623.038085938 c 0
 582.325195312 621.984375 l 1
 583.494140625 621.61328125 l 0
 612.123046875 612.528320312 641.9296875 599.545898438 668.981445312 584.305664062 c 1
 668.060546875 584.852539062 667.944335938 584.950195312 668.852539062 584.381835938 c 0
 696.075195312 560.267139979 745.133789062 537.967773438 767.2265625 505.286132812 c 5
 823.23828125 457.020507812 835.249023438 382.815946113 837.481445312 308.724609375 c 1
 840.245117188 234.718482974 812.600585938 125.459723067 761.665039062 66.322265625 c 0
 761.360351562 66.0126953125 l 1
 761.150390625 65.6328125 l 0
 752.471679688 49.970703125 738.18359375 39.33984375 724.634765625 26.365234375 c 1
 725.444335938 27.06640625 725.724609375 27.2373046875 724.880859375 26.578125 c 0
 697.03125 4.8505859375 667.4140625 -15.9189453125 634.622070312 -28.8740234375 c 1
 635.643554688 -28.55078125 636.091796875 -28.4873046875 635.05078125 -28.73828125 c 0
 615.016601562 -33.5625 597.934570312 -44.033203125 579.424804688 -49.166015625 c 1
 580.46484375 -48.9150390625 580.68359375 -48.8984375 579.634765625 -49.115234375 c 0
 524.6640625 -60.447265625 467.532226562 -64.16796875 412.098632812 -55.2333984375 c 1
 413.150390625 -55.439453125 413.358398438 -55.517578125 412.31640625 -55.2744140625 c 0
 379.9609375 -47.7470703125 347.358398438 -39.7890625 318.227539062 -24.484375 c 0
 318.05859375 -24.39453125 l 1
 317.879882812 -24.3271484375 l 0
 272.311523438 -6.9169921875 236.477539062 27.5 201.963867188 61.875 c 1
 202.668945312 61.068359375 202.901367188 60.6884765625 202.25390625 61.5419921875 c 0
 181.46875 88.8955078125 157.634765625 115.223632812 148.516601562 148.022460938 c 0
 148.436523438 148.309570312 l 1
 148.305664062 148.579101562 l 0
 130.95703125 183.911132812 125.517578125 223.966796875 124.533203125 263.353515625 c 1
 124.512695312 262.282226562 124.458007812 262.000976562 124.52734375 263.069335938 c 0
 125.689453125 281.349609375 120.176757812 287.954101562 126.602539062 303.237304688 c 0
 126.772460938 303.641601562 l 1
 126.828125 304.076171875 l 0
 132.088867188 345.428710938 168.209960938 373.505859375 206.784179688 387.349609375 c 1
 229.4140625 387.541992188 255.135742188 392.477539062 274.641601562 381.032226562 c 0
 275.12890625 380.745117188 l 1
 275.684570312 380.643554688 l 0
 294.2109375 377.229492188 303.365234375 360.754882812 322.580078125 348.431640625 c 1
 328.924804688 332.345703125 340.01953125 319.0390625 339.422851562 303.524414062 c 0
 339.400390625 302.956054688 l 1
 339.57421875 302.415039062 l 0
 345.239257812 284.828125 335.25 267.583984375 330.961914062 247.1875 c 1
 321.124023438 234.908203125 311.55859375 218.950195312 296.693359375 213.2265625 c 0
 296.280273438 213.067382812 l 1
 295.924804688 212.801757812 l 0
 273.676757812 196.173828125 246.419921875 191.419921875 217.892578125 193.564453125 c 1
 211.783203125 196.110351562 204.166992188 198.517578125 202.071289062 192.384765625 c 0
 199.465820312 184.766601562 211.086914062 171.23828125 215.741210938 165.592773438 c 1
 227.893554688 145.088867188 245.176757812 128.436523438 262.090820312 112.073242188 c 0
 262.203125 111.96484375 l 1
 262.326171875 111.8671875 l 0
 285.896484375 93.146484375 312.352539062 77.361328125 340.26171875 65.6650390625 c 0
 340.344726562 65.6298828125 l 1
 340.430664062 65.5986328125 l 0
 373.03125 54.0498046875 414.729492188 45.1640625 453.44140625 50.2490234375 c 1
 499.154296875 46.7236328125 549.220703125 74.419921875 589.7109375 100.974609375 c 0
 590.091796875 101.224609375 l 1
 590.387695312 101.569335938 l 0
 624.870117188 149.182731756 664.587890625 213.488998279 670.76171875 287.194335938 c 1
 678.12109375 312.663085938 672.749023438 338.240234375 672.099609375 362.913085938 c 0
 672.086914062 363.418945312 l 1
 671.918945312 363.896484375 l 0
 664.978515625 383.620117188 665.161132812 407.637695312 652.353515625 427.439453125 c 1
 652.868164062 426.5 653.0234375 426.0546875 652.579101562 427.030273438 c 0
 638.297292957 446.089860501 620.633789062 496.909179688 594 509.33984375 c 0
 591.91015625 510.314453125 589.784179688 511.299804688 587.62109375 512.299804688 c 1
 588.42578125 511.592773438 588.54837184 511.102187301 587.962890625 511.999023438 c 0
 569.683023091 540 524.967773438 540.687300837 493.916992188 558.258789062 c 1
 494.89453125 557.821289062 495.228515625 557.598632812 494.280273438 558.096679688 c 0
 475.256835938 568.079101562 453.833984375 559.573242188 439.280273438 567.4375 c 0
 439.15625 567.50390625 l 1
 439.025390625 567.560546875 l 0
 428.0390625 572.298828125 427.7109375 584.978515625 430.129882812 597.171875 c 1
 496.413085938 688.221679688 561.826171875 783.579101562 627.782226562 876.26953125 c 0
 631.395507812 881.345703125 l 1
 313.926757812 881.345703125 l 1
 313.735351562 881.323242188 l 0
 296.25390625 879.219726562 274.047851562 886.49609375 255.689453125 877.043945312 c 1
 256.672851562 877.466796875 257.10546875 877.573242188 256.094726562 877.216796875 c 0
 233.533203125 869.28125 243.260742188 839.72265625 230.233398438 831.310546875 c 0
 229.59765625 830.900390625 l 1
 229.212890625 830.250976562 l 0
 221.420898438 817.115234375 201.06640625 814.984375 187.069335938 823.537109375 c 0
 178.893554688 828.532226562 173.356445312 836.379882812 173.99609375 848.640625 c 1
 195.04296875 903.059570312 221.247070312 958.479492188 244.376953125 1013.61132812 c 1
 249.658203125 1027.2890625 254.26953125 1039.43457031 267.147460938 1040.97460938 c 1
688.361328125 142.677734375 m 0
 695.671875 189.60546875 754.961914062 166.359375 749.8671875 135.66015625 c 0
 739.462890625 94.4501953125 686.220703125 111.750976562 688.361328125 142.677734375 c 0
759.96484375 133.333007812 m 2
 760.017578125 133.541015625 l 1
 760.051757812 133.752929688 l 0
 767.487304688 178.565429688 687.484375 204.354492188 678.090820312 144.053710938 c 0
 678.057617188 143.834960938 l 1
 678.041992188 143.61328125 l 0
 675.049804688 100.388671875 746.318359375 79.28125 759.96484375 133.333007812 c 2
529.63671875 979.921875 m 0
 518.122070312 943.35546875 470.504882812 967.227539062 468.734375 988.321289062 c 1
 476.08984375 1008.68652344 487.666992188 1018.125 499.5 1018.48535156 c 0
 520.9140625 1016.74023438 534.32421875 998.521484375 529.63671875 979.921875 c 0
500.053710938 1028.83496094 m 2
 499.763671875 1028.85839844 l 1
 499.473632812 1028.84960938 l 0
 480.793945312 1028.27929688 465.049804688 1011.38867188 458.58203125 990.481445312 c 0
 458.3359375 989.688476562 l 1
 458.350585938 988.857421875 l 0
 458.94921875 955.177734375 524.291992188 928.455078125 539.563476562 976.955078125 c 0
 539.609375 977.098632812 l 1
 539.646484375 977.245117188 l 0
 546.009765625 1002.50683594 527.682617188 1026.58203125 500.053710938 1028.83496094 c 2
EndSplineSet
Validated: 37
EndChar

StartChar: four
Encoding: 52 52 6
Width: 988
VWidth: 0
Flags: HMW
HStem: -57 6<570 733 570 733 570 734 570 734 570 734> 160 6<238 543 239 537 537 537> 257 6<276 537> 957 6<570 570 571 571>
VStem: 454 6<902 903 902 903 902 903> 537 6<160 166 263 428 263 263> 606 6<944 944> 682 6<113 160 113 160 114 160 114 165 286 501 286 287>
LayerCount: 2
Fore
SplineSet
512.9453125 22.203125 m 0
 493.375976562 25.9130859375 476.125976562 12.2802734375 472.680664062 -5.474609375 c 1
 460.928710938 -25.4677734375 475.09375 -46.0146484375 486.142578125 -58.55078125 c 0
 486.887695312 -59.3984375 l 1
 487.993164062 -59.6328125 l 0
 518.661132812 -66.1552734375 550.556640625 -60.78515625 580.563476562 -62.5009765625 c 0
 580.685546875 -62.509765625 l 1
 580.807617188 -62.505859375 l 0
 635.374023438 -61.712890625 690.831054688 -64.107421875 745.2578125 -61.3212890625 c 0
 745.977539062 -61.2841796875 l 1
 746.619140625 -60.9609375 l 0
 772.416992188 -47.9638671875 775.375976562 -13.06640625 760.853515625 8.240234375 c 0
 760.768554688 8.365234375 l 1
 760.671875 8.482421875 l 0
 748.899414062 22.8310546875 732.655273438 23.9482421875 716.3359375 22.224609375 c 0
 716.220703125 22.212890625 l 1
 716.110351562 22.19140625 l 0
 701.8828125 19.7197265625 694.227539062 37.8466796875 696.8515625 52.1279296875 c 0
 696.907226562 52.431640625 l 1
 696.907226562 163.067382812 l 1
 747.965820312 169.260742188 792.686523438 188.540039062 836.168945312 211.586914062 c 0
 836.258789062 211.635742188 l 1
 836.345703125 211.6875 l 0
 858.95703125 225.471679688 881.09375 240.6484375 900.688476562 258.888671875 c 0
 901.57421875 259.713867188 l 1
 901.7421875 260.915039062 l 0
 904.669921875 281.754882812 883.283203125 294.615234375 876.770507812 308.044921875 c 0
 876.549804688 308.495117188 l 1
 876.2109375 308.864257812 l 0
 866.34765625 319.602539062 860.341796875 340.873046875 841.541992188 345.602539062 c 0
 840.196289062 345.94140625 l 1
 838.995117188 345.244140625 l 0
 816.556640625 332.22265625 798.091796875 310.930664062 775.677734375 299.104492188 c 0
 750.786132812 286.4140625 723.857421875 276.177734375 696.907226562 271.276367188 c 1
 696.907226562 519.276367188 l 1
 696.604492188 519.94921875 l 0
 690.141601562 534.220703125 678.72265625 543.290039062 663.705078125 547.3046875 c 0
 645.140625 552.139648438 627.663085938 539.395507812 618.640625 526.280273438 c 0
 618.215820312 525.6640625 l 1
 618.088867188 524.924804688 l 0
 611.174804688 484.756835938 604.828125 470.576171875 563.46484375 467.115234375 c 0
 562.890625 467.068359375 l 1
 562.360351562 466.83203125 l 0
 533.53515625 454.000976562 544.991210938 418.013671875 543.009765625 398.045898438 c 0
 542.993164062 397.87890625 l 1
 542.993164062 270.66015625 l 1
 256.036132812 270.66015625 l 1
 245.155273438 277.889648438 250.754882812 288.525390625 261.931640625 294.413085938 c 0
 262.254882812 294.583984375 l 1
 262.536132812 294.819335938 l 0
 304.795898438 330.291015625 350.09375 363.770507812 384.568359375 408.389648438 c 1
 411.255859375 441.4921875 439.830078125 473.741210938 461.979492188 510.899414062 c 1
 509.303710938 586.134765625 547.586914062 667.994140625 571.116210938 753.954101562 c 0
 571.158203125 754.111328125 l 1
 571.185546875 754.2734375 l 0
 578.4609375 796.26953125 593.52734375 837.36328125 593.998046875 881.665039062 c 0
 596.784179688 915.03125 602.0390625 949.575195312 597.904296875 983.46484375 c 0
 597.829101562 984.1015625 l 1
 597.5234375 984.665039062 l 0
 584.142578125 1009.59277344 551.674804688 999.524414062 532.573242188 1001.40234375 c 0
 532.340820312 1001.42578125 l 1
 532.10546875 1001.41601562 l 0
 505.5859375 1000.37792969 477.373046875 1004.07324219 450.669921875 998.546875 c 0
 450.119140625 998.43359375 l 1
 449.633789062 998.1484375 l 0
 428.8828125 985.983398438 438.184570312 960.731445312 436.459960938 945.516601562 c 0
 436.43359375 945.28515625 l 1
 436.4375 945.051757812 l 0
 437.794921875 885.61328125 433.51171875 826.16796875 422.129882812 767.857421875 c 0
 411.685546875 736.888671875 408.4375 705.110351562 394.66796875 676.64453125 c 0
 394.534179688 676.368164062 l 1
 394.452148438 676.069335938 l 0
 384.16015625 638.918945312 364.091796875 605.721679688 347.2890625 570.565429688 c 0
 305.970703125 504.21875 257.6640625 441.802734375 198.137695312 391.1640625 c 0
 197.997070312 391.044921875 l 1
 197.869140625 390.91015625 l 0
 171.829101562 363.381835938 145.115234375 336.018554688 124.362304688 303.500976562 c 1
 96.2822265625 260.668945312 76.38671875 213.125 61.5009765625 164.649414062 c 0
 54.8115234375 150.201171875 65.349609375 134.4296875 73.19140625 125.194335938 c 0
 73.3203125 125.043945312 l 1
 73.46484375 124.909179688 l 0
 85.83984375 113.360351562 104.23046875 112.116210938 119.763671875 114.524414062 c 0
 119.931640625 114.55078125 l 1
 120.096679688 114.59375 l 0
 135.201171875 118.510742188 151.202148438 123.763671875 159.046875 140.331054688 c 0
 171.829101562 157.469726562 192.051757812 166.138671875 213.248046875 162.750976562 c 0
 213.514648438 162.708007812 l 1
 542.930664062 162.708007812 l 1
 542.267578125 117.45703125 544.629882812 76.55078125 541.793945312 34.0625 c 1
 541.793945312 34.0625 524.978515625 20.705078125 512.9453125 22.203125 c 0
778.823242188 293.041992188 m 0
 802.328125 305.447265625 820.44921875 326.151367188 841.188476562 338.611328125 c 1
 852.393554688 334.74609375 859.856445312 316.7890625 870.627929688 305.065429688 c 1
 878.8671875 288.075195312 895.83203125 279.645507812 895.129882812 263.044921875 c 1
 876.313476562 245.823242188 854.860351562 230.970703125 832.791992188 217.518554688 c 1
 855.658203125 230.53125 856.213867188 229.94140625 832.971679688 217.619140625 c 0
 789.130859375 194.381835938 742.385742188 174.73828125 693.134765625 169.517578125 c 0
 690.081054688 169.194335938 l 1
 690.081054688 53.1025390625 l 1
 687.838867188 38.23046875 694.745117188 11.5517578125 717.279296875 15.466796875 c 1
 691.221679688 11.8310546875 690.889648438 12.671875 717.053710938 15.435546875 c 0
 732.848632812 17.103515625 745.790039062 15.857421875 755.392578125 4.1513671875 c 1
 739.624023438 25.2109375 740.39453125 26.1337890625 755.2109375 4.39453125 c 0
 767.775390625 -14.0361328125 764.984375 -43.26171875 744.177734375 -54.5419921875 c 1
 691.836914062 -57.1474609375 635.08984375 -54.888671875 580.70703125 -55.6796875 c 1
 607.010742188 -56.240234375 607.217773438 -57.1884765625 580.954101562 -55.685546875 c 0
 550.208984375 -53.927734375 519.4921875 -59.0185546875 490.514648438 -53.1826171875 c 1
 479.6640625 -40.353515625 469.58984375 -22.7275390625 478.794921875 -8.5966796875 c 0
 479.19140625 -7.986328125 l 1
 479.306640625 -7.2646484375 l 0
 481.727539062 8.1044921875 496.44140625 18.3828125 511.78125 15.4765625 c 0
 511.887695312 15.455078125 l 1
 511.99609375 15.4423828125 l 0
 525.989257812 13.7001953125 543.09375 15.1337890625 548.465820312 32.84375 c 0
 548.579101562 33.2158203125 l 1
 548.606445312 33.6064453125 l 0
 551.528320312 77.388671875 548.951171875 122.248046875 549.819335938 166.055664062 c 0
 549.888671875 169.53515625 l 1
 213.786132812 169.53515625 l 1
 240.012695312 167.452148438 240.305664062 165.340820312 214.325195312 169.493164062 c 0
 190.508789062 173.298828125 167.56640625 163.177734375 153.37109375 144.142578125 c 0
 153.166992188 143.869140625 l 1
 153.022460938 143.560546875 l 0
 146.633789062 130.0703125 133.388671875 125.095703125 118.3828125 121.203125 c 1
 144.147460938 126.52734375 144.713867188 125.301757812 118.716796875 121.271484375 c 0
 104.087890625 119.00390625 88.1025390625 120.586914062 78.1240234375 129.899414062 c 1
 96.2841796875 110.865234375 95.4248046875 109.55859375 78.3974609375 129.61328125 c 0
 70.6181640625 138.774414062 63.228515625 152.130859375 67.79296875 161.990234375 c 0
 67.890625 162.200195312 l 1
 67.958984375 162.421875 l 0
 82.720703125 210.49609375 102.424804688 257.5859375 130.095703125 299.793945312 c 1
 150.401367188 331.611328125 176.715820312 358.61328125 202.830078125 386.217773438 c 1
 183.741210938 368.111328125 182.522460938 368.91796875 202.561523438 385.962890625 c 0
 262.811523438 437.219726562 311.623046875 500.37890625 353.185546875 567.1171875 c 0
 353.286132812 567.278320312 l 1
 353.369140625 567.44921875 l 0
 369.965820312 602.1796875 390.411132812 635.916015625 401.03125 674.24609375 c 1
 391.75390625 649.627929688 389.359375 649.98828125 400.814453125 673.671875 c 0
 415.255859375 703.52734375 418.563476562 735.919921875 428.671875 765.890625 c 0
 428.744140625 766.10546875 l 1
 428.788085938 766.329101562 l 0
 440.2734375 825.17578125 444.629882812 885.333007812 443.263671875 945.208007812 c 1
 442.079101562 918.92578125 440.278320312 918.60546875 443.2421875 944.74609375 c 0
 445.440429688 964.120117188 437.095703125 981.861328125 452.598632812 991.975585938 c 1
 476.809570312 996.736328125 505.203125 993.529296875 532.373046875 994.592773438 c 1
 506.075195312 995.368164062 505.723632812 997.180664062 531.905273438 994.607421875 c 0
 554.78125 992.358398438 579.509765625 1001.3359375 591.205078125 982.01171875 c 1
 594.798828125 950.500976562 589.984375 915.6328125 587.184570312 882.110351562 c 0
 587.173828125 881.984375 l 1
 587.172851562 881.861328125 l 0
 586.717773438 839.067382812 571.879882812 798.27734375 564.459960938 755.436523438 c 1
 570.182617188 781.116210938 571.474609375 781.131835938 564.530273438 755.756835938 c 0
 541.197265625 670.50390625 503.276367188 589.375 456.157226562 514.463867188 c 1
 434.322265625 477.834960938 406.16796875 446.061523438 379.209960938 412.620117188 c 1
 345.620117188 369.147460938 300.088867188 335.254882812 258.594726562 300.42578125 c 1
 246.537109375 293.157226562 233.947265625 274.9296875 253.541992188 264.249023438 c 0
 254.305664062 263.833007812 l 1
 549.8203125 263.833007812 l 1
 549.8203125 397.7109375 l 1
 548.520507812 371.432617188 547.208007812 371.193359375 549.8046875 397.373046875 c 0
 552.21484375 421.66796875 541.91796875 449.307617188 564.610351562 460.359375 c 1
 607.712890625 464.313476562 617.455078125 481.65234375 624.688476562 523.015625 c 1
 632.340820312 533.689453125 647.4921875 544.473632812 661.983398438 540.696289062 c 0
 674.911132812 537.2421875 683.563476562 530.955078125 690.081054688 517.8125 c 1
 690.081054688 263.252929688 l 1
 694.024414062 263.875 l 0
 723.755859375 268.549804688 752.25 279.49609375 778.823242188 293.041992188 c 0
646.696289062 70.150390625 m 0
 691.390625 101.75390625 626.53515625 186.572265625 587.493164062 120.397460938 c 0
 587.244140625 119.9765625 l 1
 587.080078125 119.513671875 l 0
 576.071289062 88.677734375 615.849609375 40.5458984375 646.696289062 70.150390625 c 0
639.522460938 77.541015625 m 2
 621.15234375 57.9013671875 589.325195312 91.3623046875 596.575195312 115.608398438 c 1
 629.208984375 168.423828125 670.85546875 98.33203125 640.450195312 78.3232421875 c 0
 639.939453125 77.986328125 l 1
 639.522460938 77.541015625 l 2
521.618164062 858.185546875 m 4
 528.850585938 804.900390625 461.624023438 821.04296875 461.583984375 852.505859375 c 5
 470.405273438 889.993164062 513.19921875 886.465820312 521.618164062 858.185546875 c 4
531.678710938 860.209960938 m 6
 531.626953125 860.538085938 l 5
 531.530273438 860.861328125 l 4
 519.703125 900.583007812 460.924804688 900.862304688 451.443359375 854.09375 c 4
 451.360351562 853.681640625 l 5
 451.345703125 853.258789062 l 4
 449.596679688 804.344726562 542.383789062 793.5703125 531.678710938 860.209960938 c 6
EndSplineSet
Validated: 37
EndChar

StartChar: five
Encoding: 53 53 7
Width: 868
VWidth: 0
Flags: HMW
HStem: 112 6 623 6<446 447> 793 6<260 260> 951 6<186 186 186 596 185 596>
VStem: 158 6<394 920 394 920 397 919> 254 6<585 793 585 799>
LayerCount: 2
Fore
SplineSet
300 1054.78515625 m 1048
697.319335938 829.762695312 m 2,0,1
 711.0546875 813.916015625 730.069335938 819.198242188 746.97265625 826.59375 c 1,2,-1
 746.97265625 826.59375 l 1,3,-1
 748.029296875 826.59375 l 1,4,5
 771.26953125 847.72265625 746.97265625 876.24609375 740.634765625 895.26171875 c 1,6,-1
 740.634765625 895.26171875 l 1,7,-1
 740.634765625 895.26171875 l 1,8,9
 719.504882812 942.802734375 701.544921875 992.454101562 678.303710938 1038.93847656 c 1,10,-1
 678.303710938 1038.93847656 l 1,11,-1
 678.303710938 1038.93847656 l 1,12,13
 659.288085938 1063.23632812 625.481445312 1051.61523438 602.240234375 1054.78515625 c 1,14,-1
 602.240234375 1054.78515625 l 1,15,-1
 300 1054.78515625 l 0,0,0
 168.043945312 1054.78515625 l 1,16,-1
 168.043945312 1054.78515625 l 1,17,18
 147.970703125 1051.61523438 136.350585938 1034.71191406 139.51953125 1014.63964844 c 2,19,-1
 139.51953125 461.064453125 l 1,20,-1
 139.51953125 460.008789062 l 1,21,22
 162.76171875 427.258789062 213.469726562 426.203125 240.9375 453.669921875 c 2,23,-1
 241.994140625 454.7265625 l 1,24,-1
 241.994140625 454.7265625 l 1,25,26
 254.671875 473.7421875 263.123046875 494.872070312 277.913085938 511.7734375 c 1,27,-1
 277.913085938 511.7734375 l 1,28,-1
 278.96875 511.7734375 l 1,29,30
 315.9453125 562.484375 379.331054688 595.232421875 442.717773438 585.724609375 c 0,31,32
 498.708984375 576.217773438 546.249023438 537.127929688 574.7734375 488.533203125 c 0,33,34
 598.014648438 448.387695312 613.861328125 404.017578125 617.03125 357.534179688 c 0,35,36
 624.42578125 286.752929688 607.521484375 162.801757812 565.263671875 105.75390625 c 0,37,38
 547.305664062 79.3427734375 521.951171875 58.21484375 494.484375 42.3681640625 c 0,39,40
 442.717773438 15.95703125 377.217773438 19.1259765625 329.678710938 53.98828125 c 0,41,42
 318.05859375 64.552734375 300.098632812 71.9482421875 302.211914062 80.3994140625 c 0,43,44
 320.170898438 106.810546875 328.623046875 137.447265625 320.170898438 168.083984375 c 0,45,46
 308.549804688 223.018554688 247.276367188 261.049804688 192.341796875 246.260742188 c 0,47,48
 145.858398438 235.696289062 106.770507812 188.15625 116.27734375 138.50390625 c 1,49,-1
 116.27734375 138.50390625 l 1,50,-1
 116.27734375 138.50390625 l 1,51,52
 127.8984375 97.3017578125 142.688476562 52.931640625 177.551757812 24.408203125 c 0,53,54
 220.866210938 -17.849609375 275.80078125 -48.486328125 334.9609375 -63.275390625 c 0,55,56
 376.162109375 -74.8974609375 420.533203125 -78.06640625 462.791015625 -72.7841796875 c 0,57,58
 514.555664062 -67.501953125 564.208007812 -48.486328125 608.579101562 -22.0751953125 c 1,59,-1
 608.579101562 -22.0751953125 l 1,60,-1
 608.579101562 -22.0751953125 l 1,61,62
 650.836914062 6.44921875 692.037109375 41.310546875 718.448242188 85.681640625 c 0,63,64
 754.368164062 137.447265625 773.3828125 248.721679688 779.72265625 311.049804688 c 0,65,66
 783.947265625 358.590820312 777.609375 407.186523438 763.875976562 452.614257812 c 0,67,68
 749.0859375 495.926757812 729.012695312 533.959960938 705.771484375 566.708984375 c 1,69,-1
 705.771484375 566.708984375 l 1,70,-1
 705.771484375 566.708984375 l 1,71,72
 666.68359375 614.249023438 618.086914062 654.393554688 562.095703125 679.748046875 c 0,73,74
 525.119140625 695.594726562 484.975585938 704.045898438 444.831054688 708.272460938 c 1,75,-1
 444.831054688 708.272460938 l 1,76,-1
 444.831054688 708.272460938 l 1,77,78
 412.081054688 709.328125 380.387695312 707.21484375 348.694335938 699.821289062 c 0,79,80
 312.776367188 693.481445312 276.857421875 629.748046875 247.276367188 611.788085938 c 1,81,-1
 247.276367188 881.52734375 l 1,82,-1
 650.836914062 882.584960938 l 1,83,84
 665.625976562 876.24609375 697.319335938 829.762695312 697.319335938 829.762695312 c 2,0,1
701.544921875 563.540039062 m 1,85,86
 722.674804688 530.791015625 742.747070312 493.815429688 757.536132812 450.500976562 c 0,87,88
 771.26953125 406.129882812 776.552734375 357.534179688 773.3828125 311.049804688 c 0,89,90
 767.045898438 249.77734375 748.029296875 138.50390625 713.166015625 88.8515625 c 1,91,-1
 713.166015625 88.8515625 l 1,92,-1
 713.166015625 88.8515625 l 1,93,94
 686.755859375 45.537109375 647.666992188 11.73046875 605.409179688 -16.7939453125 c 1,95,96
 623.368164062 -5.171875 623.368164062 -6.228515625 605.409179688 -16.7939453125 c 1,97,98
 562.095703125 -43.2041015625 513.499023438 -61.1640625 462.791015625 -66.4462890625 c 0,99,100
 420.533203125 -71.728515625 377.217773438 -69.615234375 336.017578125 -57.994140625 c 0,101,102
 277.913085938 -43.2041015625 225.090820312 -12.5673828125 181.77734375 29.6904296875 c 1,103,-1
 181.77734375 29.6904296875 l 1,104,-1
 181.77734375 29.6904296875 l 1,105,106
 147.970703125 57.1572265625 134.237304688 98.359375 122.6171875 139.559570312 c 1,107,108
 126.842773438 119.487304688 126.842773438 119.487304688 122.6171875 139.559570312 c 1,109,110
 114.165039062 184.987304688 151.140625 229.356445312 194.455078125 239.921875 c 0,111,112
 245.163085938 253.65625 302.211914062 218.79296875 313.83203125 167.02734375 c 0,113,114
 321.2265625 138.50390625 313.83203125 107.866210938 296.928710938 83.568359375 c 1,115,-1
 296.928710938 83.568359375 l 1,116,-1
 295.872070312 82.5126953125 l 1,117,118
 290.590820312 66.666015625 318.05859375 57.1572265625 325.453125 49.7626953125 c 1,119,-1
 325.453125 48.70703125 l 1,120,-1
 325.453125 48.70703125 l 1,121,122
 375.104492188 12.787109375 442.717773438 9.6171875 496.595703125 37.0849609375 c 1,123,-1
 496.595703125 37.0849609375 l 1,124,-1
 497.65234375 37.0849609375 l 1,125,126
 526.176757812 53.98828125 550.474609375 75.1171875 569.490234375 102.584960938 c 0,127,128
 612.8046875 160.688476562 630.764648438 286.752929688 623.368164062 358.590820312 c 0,129,130
 620.19921875 406.129882812 604.353515625 451.557617188 580.0546875 491.702148438 c 0,131,132
 551.530273438 542.411132812 501.877929688 582.555664062 443.7734375 592.063476562 c 0,133,134
 378.275390625 601.571289062 311.71875 568.822265625 273.6875 516 c 1,135,136
 286.365234375 531.846679688 287.420898438 531.846679688 273.6875 516 c 1,137,138
 258.897460938 498.040039062 248.333007812 475.85546875 236.711914062 458.952148438 c 0,139,140
 212.4140625 433.59765625 169.098632812 434.654296875 145.858398438 463.177734375 c 1,141,-1
 145.858398438 1015.6953125 l 1,142,-1
 145.858398438 1015.6953125 l 1,143,144
 141.631835938 1031.54199219 153.252929688 1046.33300781 169.098632812 1048.44628906 c 1,145,146
 147.970703125 1047.38867188 147.970703125 1048.44628906 169.098632812 1048.44628906 c 1,147,-1
 602.240234375 1048.44628906 l 1,148,149
 581.110351562 1049.50195312 582.16796875 1050.55859375 602.240234375 1048.44628906 c 1,150,151
 628.651367188 1045.27539062 655.0625 1056.89746094 673.021484375 1035.76855469 c 1,152,153
 696.263671875 989.284179688 714.22265625 940.689453125 735.3515625 893.1484375 c 1,154,155
 727.956054688 912.165039062 727.956054688 913.220703125 734.294921875 893.1484375 c 0,156,157
 741.689453125 869.907226562 760.706054688 849.834960938 743.802734375 831.875976562 c 1,158,159
 729.012695312 825.536132812 707.883789062 826.59375 696.263671875 840.327148438 c 1,160,-1
 695.20703125 840.327148438 l 1,161,-1
 695.20703125 840.327148438 l 1,162,163
 681.47265625 851.947265625 680.416992188 884.698242188 652.950195312 887.8671875 c 1,164,-1
 652.950195312 887.8671875 l 1,165,-1
 240.9375 887.8671875 l 1,166,-1
 240.9375 600.16796875 l 1,167,-1
 245.163085938 603.336914062 l 2,168,169
 276.857421875 623.409179688 312.776367188 688.19921875 349.750976562 694.5390625 c 1,170,-1
 349.750976562 694.5390625 l 1,171,-1
 349.750976562 694.5390625 l 1,172,173
 380.387695312 701.932617188 412.081054688 702.990234375 443.7734375 701.932617188 c 1,174,175
 422.645507812 702.990234375 423.702148438 704.045898438 443.7734375 701.932617188 c 1,176,177
 482.862304688 697.708007812 524.063476562 690.3125 559.982421875 674.465820312 c 0,178,179
 614.91796875 650.16796875 663.513671875 610.0234375 701.544921875 563.540039062 c 1,85,86
404.686523438 944.649414062 m 4,180,181
 428.31640625 919.787109375 467.818359375 961.572265625 425.815429688 983.736328125 c 5,182,-1
 425.815429688 983.736328125 l 5,183,-1
 425.815429688 983.736328125 l 5,184,185
 405.7421875 990.075195312 390.27734375 959.809570312 404.686523438 944.649414062 c 4,180,181
408.912109375 948.874023438 m 4,186,187
 404.55078125 951.510742188 404.502929688 957.41796875 405.17578125 962 c 4,0,0
 406.575195312 971.538085938 415.138671875 980.252929688 423.702148438 977.397460938 c 5,188,189
 444.60546875 989.89453125 456.494140625 920.111328125 408.912109375 948.874023438 c 4,186,187
656.481445312 111.948242188 m 0,190,191
 663.302241026 109.999572084 669.729787292 111.364758058 674.999999556 114.619188201 c 0,0,0
 692.586128948 125.478870265 697.285519512 157.375 660.708007812 157.375 c 1,192,-1
 660.708007812 157.375 l 1,193,-1
 660.708007812 157.375 l 1,194,195
 637.465820312 155.26171875 635.353515625 117.23046875 656.481445312 111.948242188 c 0,190,191
661.764648438 152.092773438 m 0,196,197
 700.852539062 152.092773438 678.666992188 113.00390625 659.651367188 118.286132812 c 0,198,199
 644.861328125 122.512695312 645.91796875 149.979492188 661.764648438 152.092773438 c 0,196,197
EndSplineSet
Validated: 37
EndChar

StartChar: six
Encoding: 54 54 8
Width: 914
VWidth: 0
Flags: HMW
HStem: 149 6<737 737> 1000 6<520 539> 1072 6<787 787 787 787 787 787>
VStem: 380 6<586 586> 529 6<809 809> 1079 6
LayerCount: 2
Fore
SplineSet
381.6328125 -83.6181640625 m 4
 462.080078125 -111.830078125 545.732421875 -109.02734375 619.438476562 -73.96875 c 5
 715.610351562 -40.1826171875 798.274414062 42.0712890625 829.26953125 134.927734375 c 4
 829.307617188 135.0390625 l 5
 829.3359375 135.154296875 l 4
 861.880859375 271.794921875 851.272460938 381.313476562 768.8359375 482.107421875 c 4
 768.793945312 482.157226562 l 5
 768.75 482.20703125 l 4
 728.872070312 526.310546875 674.772460938 563.008789062 618.284179688 583.1875 c 4
 618.09765625 583.256835938 l 5
 617.901367188 583.294921875 l 4
 580.64453125 590.625976562 548.916015625 603.856445312 512.97265625 599.65234375 c 4
 470.486328125 604.678710938 431.9453125 591.270507812 393.576171875 580.383789062 c 4
 393.484375 580.360351562 l 5
 393.393554688 580.326171875 l 4
 361.865234375 568.875 332.630859375 551.137695312 305.248046875 532.58984375 c 4
 304.883789062 532.342773438 l 5
 304.619140625 531.991210938 l 4
 292.548828125 516.063476562 298.03515625 541.143554688 291.959960938 557.192382812 c 5
 286.544921875 583.85546875 290.578125 608.688476562 289.267578125 635.702148438 c 4
 290.229492188 696.28515625 321.71875 753.086914062 362.82421875 801.952148438 c 4
 403.102539062 850.155273438 456.709960938 889.1953125 519.171875 900.469726562 c 4
 519.411132812 900.510742188 l 5
 519.634765625 900.595703125 l 4
 546.758789062 910.758789062 575.979492188 905.438476562 605.400390625 907.317382812 c 4
 619.040039062 906.736328125 633.900390625 902.57421875 646.643554688 899.51953125 c 5
 618.446289062 881.58984375 601.415039062 852.483398438 599.709960938 820.4609375 c 4
 594.375976562 780.978515625 616.0390625 732.5546875 648.143554688 716.227539062 c 4
 678.987304688 698.436523438 715.833007812 694.44140625 745.767578125 707.521484375 c 4
 811.146484375 727.715820312 847.638671875 788.435546875 829.211914062 830.51171875 c 5
 815.319335938 903.491210938 773.939453125 969.528320312 741.500976562 997.076171875 c 4
 715.54296875 1010.89648438 687.375 1021.52050781 659.015625 1029.25 c 4
 658.821289062 1029.29980469 l 5
 658.62109375 1029.32519531 l 4
 605.142578125 1034.2890625 547.389648438 1044.45800781 500.068359375 1029.95019531 c 4
 493.768554688 1028.54101562 487.02734375 1027.26464844 479.966796875 1026.04882812 c 4
 426.756835938 1016.88183594 355.365234375 1011.09863281 317.465820312 977.213867188 c 5
 259.239257812 934.622070312 225.123046875 875.373046875 192.87109375 817.330078125 c 4
 158.228515625 783.252929688 157.075195312 732.125976562 136.970703125 696.9296875 c 4
 136.942382812 696.83984375 l 5
 136.91796875 696.749023438 l 4
 126.506835938 649.2734375 117.272460938 601.565429688 110.048828125 553.0703125 c 5
 98.25390625 494.263671875 93.1767578125 431.986328125 99.630859375 377.4765625 c 5
 103.352539062 320.049804688 111.212890625 261.973632812 127.274414062 210.912109375 c 5
 145.852539062 147.803710938 172.112304688 94.0498046875 206.09375 43.609375 c 4
 206.182617188 43.4775390625 l 5
 206.284179688 43.3564453125 l 4
 256.266601562 -14.6630859375 308.185546875 -70.068359375 381.6328125 -83.6181640625 c 4
512.637695312 594.31640625 m 6
 512.969726562 594.274414062 l 5
 513.298828125 594.315429688 l 4
 547.991210938 598.65234375 578.857421875 585.538085938 616.872070312 578.060546875 c 5
 582.57421875 587.502929688 582.989257812 590.1328125 616.489257812 578.163085938 c 4
 671.986328125 558.3359375 725.407226562 522.184570312 764.791992188 478.626953125 c 5
 741.595703125 505.599609375 742.184570312 506.264648438 764.705078125 478.728515625 c 4
 845.889648438 379.465820312 856.4765625 272.14453125 824.14453125 136.390625 c 5
 833.905273438 170.599609375 835.473632812 170.361328125 824.208984375 136.6171875 c 4
 793.795898438 45.5009765625 712.211914062 -35.7216796875 617.737304688 -68.9111328125 c 5
 545.2734375 -103.877929688 462.534179688 -106.77734375 382.796875 -78.412109375 c 4
 382.73046875 -78.396484375 l 5
 382.665039062 -78.3837890625 l 4
 311.43359375 -65.2412109375 260.329101562 -11.2021484375 210.328125 46.8408203125 c 5
 231.911132812 18.5625 230.39453125 17.0859375 210.517578125 46.58984375 c 4
 176.791992188 96.654296875 150.8359375 149.771484375 132.381835938 212.465820312 c 5
 116.474609375 263.03125 108.666992188 320.5546875 104.952148438 377.875976562 c 5
 98.5458984375 431.881835938 103.591796875 493.87109375 115.322265625 552.248046875 c 5
 122.490234375 600.407226562 131.7109375 648.0703125 142.08984375 695.43359375 c 5
 132.115234375 661.286132812 130.864257812 661.478515625 142.036132812 695.251953125 c 4
 162.134765625 730.288085938 172.456054688 775.293945312 197.5234375 814.716796875 c 4
 210.307617188 837.724609375 228.560546875 871.1171875 244.604492188 892.384765625 c 4
 268.780273438 924.432617188 286.077148438 947.641601562 320.66015625 972.938476562 c 5
 361.810546875 1009.98046875 443.083984375 1012.75585938 495.966796875 1023.60839844 c 4
 497.780273438 1023.98046875 499.559570312 1024.36230469 501.303710938 1024.75488281 c 4
 501.537109375 1024.796875 l 5
 501.756835938 1024.8828125 l 4
 546.625976562 1038.59082031 603.786132812 1029.0390625 658.004882812 1024.02441406 c 5
 623.077148438 1030.77246094 623.290039062 1033.453125 657.612304688 1024.10058594 c 4
 685.638671875 1016.46386719 713.517578125 1005.92773438 739.064453125 992.326171875 c 4
 739.138671875 992.288085938 l 5
 739.212890625 992.254882812 l 4
 770.557617188 965.224609375 810.903320312 899.46484375 824.145507812 828.83984375 c 5
 841.372070312 790.063476562 806.48828125 731.541015625 743.608398438 712.40234375 c 4
 715.560546875 700.145507812 680.360351562 703.8046875 650.748046875 720.88671875 c 4
 650.6875 720.920898438 l 5
 650.624023438 720.951171875 l 4
 621.12109375 735.958007812 599.954101562 782.400390625 605.01171875 819.854492188 c 4
 605.02734375 819.959960938 l 5
 605.033203125 820.068359375 l 4
 606.764648438 852.563476562 626.255859375 883.008789062 655.135742188 898.24609375 c 4
 661.626953125 901.671875 l 5
 654.451171875 903.215820312 l 4
 638.553710938 906.631835938 622.499023438 911.930664062 605.485351562 912.655273438 c 4
 605.344726562 912.662109375 l 5
 605.203125 912.65234375 l 4
 576.833984375 910.841796875 546.568359375 916.385742188 517.762695312 905.591796875 c 5
 552.061523438 915.030273438 553.232421875 912.040039062 518.224609375 905.719726562 c 4
 454.135742188 894.153320312 399.482421875 854.143554688 358.654296875 805.284179688 c 4
 358.580078125 805.194335938 l 5
 358.512695312 805.09765625 l 4
 317.107421875 755.743164062 284.92578125 697.815429688 283.9296875 635.741210938 c 4
 283.92578125 635.642578125 l 5
 283.931640625 635.541992188 l 4
 285.197265625 609.46875 281.142578125 582.458984375 286.826171875 555.692382812 c 4
 286.884765625 555.407226562 l 5
 287.006835938 555.141601562 l 4
 289.940429688 548.703125 290.560546875 504.83984375 308.240234375 528.170898438 c 5
 335.4765625 546.618164062 364.353515625 564.100585938 395.215820312 575.311523438 c 5
 361.362304688 564.375976562 360.809570312 565.54296875 395.033203125 575.251953125 c 4
 433.561523438 586.18359375 472.92578125 599.313476562 512.637695312 594.31640625 c 6
440.89453125 472.47265625 m 6
 440.481445312 472.428710938 l 5
 440.100585938 472.258789062 l 4
 251.659179688 388.486328125 259.607421875 64.9130859375 493.279296875 19.2578125 c 4
 493.694335938 19.1748046875 l 5
 494.114257812 19.228515625 l 4
 601.470703125 32.3515625 668.77734375 183.932617188 653.557617188 307.764648438 c 4
 641.5390625 405.537109375 577.583007812 487.407226562 440.89453125 472.47265625 c 6
441.889648438 467.212890625 m 5
 575.135742188 481.409179688 636.006835938 403.221679688 648.109375 308.321289062 c 4
 663.805664062 185.247070312 595.99609375 37.51171875 493.883789062 24.576171875 c 5
 265.09375 69.998046875 259.673828125 385.487304688 441.889648438 467.212890625 c 5
722.53515625 39.2607421875 m 4
 767.506835938 74.8193359375 689.897460938 162.200195312 654.33984375 81.2373046875 c 4
 654.139648438 80.78125 l 5
 654.026367188 80.2958984375 l 4
 645.3828125 42.923828125 693.994140625 14.224609375 722.53515625 39.2607421875 c 4
715.610351562 47.357421875 m 6
 693.989257812 28.392578125 659.60546875 51.73046875 664.28515625 77.4111328125 c 5
 694.848632812 143.5390625 744.490234375 70.2021484375 715.8203125 47.533203125 c 4
 715.712890625 47.4482421875 l 5
 715.610351562 47.357421875 l 6
322.0390625 819.06640625 m 4
 345.13671875 837.133789062 336.084960938 868.896484375 316.969726562 884.76953125 c 4
 298.716796875 899.928710938 271.291992188 900.602539062 253.916015625 861.04296875 c 4
 253.720703125 860.595703125 l 5
 253.607421875 860.119140625 l 4
 244.834960938 822.729492188 293.62890625 793.99609375 322.0390625 819.06640625 c 4
315.108398438 827.157226562 m 6
 293.594726562 808.173828125 259.102539062 831.534179688 263.859375 857.208007812 c 5
 294.416992188 923.321289062 344.090820312 849.841796875 315.350585938 827.360351562 c 4
 315.2265625 827.262695312 l 5
 315.108398438 827.157226562 l 6
EndSplineSet
Validated: 37
EndChar

StartChar: seven
Encoding: 55 55 9
Width: 1024
VWidth: 0
Flags: HMW
HStem: -96.525 6.3<264.35 517.4 266.45 517.4 266.45 518.45 266.45 518.45> 740.325 6.3<145.7 155.675> 790.725 6.3<230.75 678.05 230.75 663.35 663.35 663.35> 970.275 6.3
VStem: 312.65 6.3<23.175 32.625 32.625 32.625 32.625 32.625>
LayerCount: 2
Fore
SplineSet
791.47265625 771.008789062 m 4
 853.212890625 843.7734375 912.748046875 917.641601562 961.2578125 1000.32910156 c 5
 961.2578125 1000.32910156 l 5
 961.2578125 1001.43164062 l 5
 974.487304688 1031.19824219 938.104492188 1047.73632812 916.0546875 1043.32617188 c 5
 224.787109375 1043.32617188 l 5
 224.787109375 1043.32617188 l 5
 203.83984375 1040.01855469 196.123046875 1021.27636719 190.610351562 1004.73925781 c 4
 166.354492188 947.408203125 140.998046875 890.079101562 116.7421875 832.748046875 c 5
 116.7421875 831.646484375 l 5
 116.7421875 830.543945312 l 6
 117.845703125 809.595703125 136.587890625 795.264648438 157.53515625 796.366210938 c 4
 178.482421875 796.366210938 196.123046875 811.801757812 201.634765625 831.646484375 c 4
 208.25 849.286132812 228.095703125 851.491210938 246.837890625 849.286132812 c 5
 246.837890625 849.286132812 l 5
 701.067382812 849.286132812 l 5
 641.533203125 791.956054688 593.022460938 730.216796875 546.716796875 664.06640625 c 4
 503.720703125 601.223632812 468.439453125 533.970703125 437.5703125 464.514648438 c 4
 408.904296875 404.978515625 389.060546875 339.931640625 370.317382812 277.088867188 c 4
 350.47265625 204.323242188 340.549804688 128.251953125 332.833007812 53.28125 c 5
 332.833007812 53.28125 l 5
 332.833007812 53.28125 l 5
 332.833007812 33.435546875 330.626953125 9.181640625 309.6796875 6.9765625 c 4
 290.9375 8.0791015625 267.78515625 9.181640625 256.759765625 -12.869140625 c 4
 242.427734375 -37.123046875 253.452148438 -74.6083984375 282.1171875 -82.326171875 c 5
 282.1171875 -82.326171875 l 5
 548.922851562 -82.326171875 l 5
 548.922851562 -81.2236328125 l 5
 578.689453125 -67.994140625 588.612304688 -24.99609375 562.15234375 -2.9462890625 c 5
 556.639648438 -7.3564453125 502.6171875 15.7958984375 501.514648438 18.001953125 c 4
 490.490234375 36.744140625 503.720703125 59.896484375 505.924804688 84.1513671875 c 4
 526.873046875 225.271484375 570.97265625 363.083984375 629.404296875 493.178710938 c 4
 665.787109375 575.866210938 715.400390625 660.758789062 767.216796875 736.831054688 c 4
 774.935546875 747.856445312 783.754882812 759.983398438 791.47265625 771.008789062 c 4
785.959960938 773.213867188 m 5
 780.447265625 765.49609375 l 6
 719.810546875 680.603515625 666.889648438 590.198242188 623.892578125 495.383789062 c 4
 566.5625 364.185546875 521.360351562 227.4765625 500.412109375 85.25390625 c 5
 500.412109375 85.25390625 l 5
 500.412109375 85.25390625 l 5
 499.310546875 64.306640625 488.28515625 40.0517578125 494.900390625 15.7958984375 c 5
 494.900390625 15.7958984375 l 5
 494.900390625 15.7958984375 l 5
 508.129882812 -12.869140625 544.512695312 8.0791015625 557.7421875 -7.3564453125 c 5
 557.7421875 -7.3564453125 l 5
 558.845703125 -7.3564453125 l 5
 580.895507812 -26.0986328125 574.279296875 -63.583984375 547.8203125 -75.7109375 c 5
 284.322265625 -75.7109375 l 5
 262.272460938 -69.095703125 250.145507812 -37.123046875 262.272460938 -16.1767578125 c 5
 262.272460938 -16.1767578125 l 5
 263.375 -16.1767578125 l 5
 272.1953125 1.4638671875 290.9375 1.4638671875 309.6796875 0.361328125 c 5
 309.6796875 0.361328125 l 5
 310.783203125 0.361328125 l 6
 339.447265625 2.56640625 339.447265625 34.5390625 339.447265625 53.28125 c 5
 338.345703125 31.2314453125 337.2421875 32.333984375 339.447265625 53.28125 c 5
 347.165039062 128.251953125 357.087890625 202.119140625 376.932617188 274.883789062 c 4
 395.674804688 337.7265625 414.416992188 401.670898438 443.083007812 461.206054688 c 4
 473.952148438 530.6640625 509.232421875 597.916015625 552.229492188 659.65625 c 4
 599.637695312 726.908203125 651.455078125 793.05859375 710.990234375 850.389648438 c 6
 716.501953125 855.901367188 l 5
 246.837890625 855.901367188 l 5
 268.887695312 854.798828125 267.78515625 852.59375 246.837890625 855.901367188 c 5
 228.095703125 858.106445312 203.83984375 854.798828125 196.123046875 832.748046875 c 5
 196.123046875 832.748046875 l 5
 196.123046875 832.748046875 l 5
 191.712890625 816.2109375 175.174804688 802.981445312 157.53515625 802.981445312 c 5
 157.53515625 802.981445312 l 5
 157.53515625 802.981445312 l 5
 139.895507812 801.87890625 124.459960938 812.904296875 123.357421875 830.543945312 c 5
 147.612304688 886.771484375 171.8671875 945.204101562 196.123046875 1002.53320312 c 5
 196.123046875 1002.53320312 l 5
 196.123046875 1002.53320312 l 5
 201.634765625 1019.07128906 209.352539062 1035.60839844 225.889648438 1037.81445312 c 5
 203.83984375 1035.60839844 202.737304688 1037.81445312 224.787109375 1037.81445312 c 6
 916.0546875 1037.81445312 l 5
 917.158203125 1037.81445312 l 5
 938.104492188 1042.22363281 965.666992188 1025.68554688 955.745117188 1003.63574219 c 5
 965.666992188 1022.37890625 966.770507812 1022.37890625 955.745117188 1003.63574219 c 5
 907.235351562 922.051757812 847.700195312 847.081054688 785.959960938 774.31640625 c 5
 785.959960938 773.213867188 l 5
521.360351562 947.408203125 m 4
 513.642578125 959.536132812 520.2578125 974.970703125 532.384765625 977.176757812 c 4
 579.791992188 974.970703125 539 927.564453125 521.360351562 947.408203125 c 4
515.84765625 944.1015625 m 5
 516.950195312 944.1015625 l 5
 544.512695312 913.231445312 590.817382812 981.5859375 532.384765625 983.791015625 c 6
 531.283203125 983.791015625 l 5
 531.283203125 983.791015625 l 5
 512.540039062 980.483398438 505.924804688 958.43359375 515.84765625 944.1015625 c 5
397.879882812 69.818359375 m 5
 397.879882812 68.716796875 l 5
 419.9296875 34.5390625 476.158203125 89.6640625 425.442382812 105.098632812 c 5
 425.442382812 105.098632812 l 5
 423.237304688 105.098632812 l 6
 402.290039062 108.40625 391.264648438 86.3564453125 397.879882812 69.818359375 c 5
403.392578125 72.0234375 m 5
 398.982421875 86.3564453125 408.904296875 99.5859375 422.134765625 98.4833984375 c 4
 461.825195312 86.3564453125 418.827148438 49.9736328125 403.392578125 72.0234375 c 5
EndSplineSet
Validated: 37
EndChar

StartChar: eight
Encoding: 56 56 10
Width: 1024
VWidth: 0
Flags: HMW
HStem: -109.25 6.6<543.3 565.85> -0.35 6.6<478.4 478.4> 413.25 6.6<454.2 471.8>
VStem: 221 6.6 837 6.6<711.35 711.35>
LayerCount: 2
Fore
SplineSet
657.599609375 355.25 m 4
 690.599609375 323.349609375 717 283.75 733.5 241.950195312 c 5
 730.200195312 208.950195312 728 177.049804688 709.299804688 150.650390625 c 5
 709.299804688 150.650390625 l 5
 708.200195312 150.650390625 l 5
 686.200195312 105.549804688 644.400390625 70.349609375 598.200195312 50.5498046875 c 4
 557.5 34.0498046875 512.400390625 29.650390625 469.5 36.25 c 4
 426.599609375 43.9501953125 383.700195312 61.5498046875 351.799804688 91.25 c 4
 321 118.75 297.900390625 156.150390625 288 195.75 c 4
 282.5 227.650390625 280.299804688 260.650390625 290.200195312 291.450195312 c 5
 290.200195312 291.450195312 l 5
 290.200195312 291.450195312 l 5
 307.799804688 366.25 371.599609375 425.650390625 445.299804688 443.25 c 5
 478.299804688 443.25 553.099609375 438.849609375 657.599609375 355.25 c 4
569.599609375 420.150390625 m 4
 558.599609375 424.549804688 549.799804688 430.049804688 538.799804688 434.450195312 c 5
 538.799804688 434.450195312 l 5
 537.700195312 434.450195312 l 5
 506.900390625 442.150390625 476.099609375 449.849609375 444.200195312 449.849609375 c 5
 444.200195312 449.849609375 l 5
 444.200195312 449.849609375 l 5
 367.200195312 432.25 302.299804688 369.549804688 283.599609375 292.549804688 c 5
 289.099609375 313.450195312 290.200195312 313.450195312 283.599609375 292.549804688 c 5
 272.599609375 260.650390625 277 226.549804688 282.5 194.650390625 c 5
 282.5 194.650390625 l 5
 282.5 194.650390625 l 5
 292.400390625 152.849609375 315.5 115.450195312 347.400390625 86.849609375 c 4
 380.400390625 56.0498046875 424.400390625 37.349609375 468.400390625 29.650390625 c 4
 512.400390625 23.0498046875 558.599609375 28.5498046875 600.400390625 45.0498046875 c 4
 647.700195312 64.849609375 690.599609375 98.9501953125 714.799804688 146.25 c 5
 703.799804688 127.549804688 702.700195312 128.650390625 714.799804688 146.25 c 5
 734.599609375 174.849609375 736.799804688 208.950195312 740.099609375 241.950195312 c 6
 740.099609375 243.049804688 l 5
 740.099609375 243.049804688 l 5
 722.5 287.049804688 695 326.650390625 662 359.650390625 c 5
 662 359.650390625 l 5
 662 359.650390625 l 5
 634.5 383.849609375 603.700195312 404.75 569.599609375 420.150390625 c 4
274.799804688 568.650390625 m 4
 299 536.75 330.900390625 513.650390625 363.900390625 492.75 c 5
 363.900390625 492.75 l 5
 365 492.75 l 6
 370.5 491.650390625 372.700195312 489.450195312 373.799804688 489.450195312 c 5
 368.299804688 486.150390625 358.400390625 483.950195312 350.700195312 480.650390625 c 4
 292.400390625 459.75 239.599609375 421.25 201.099609375 372.849609375 c 4
 167 333.25 146.099609375 283.75 142.799804688 232.049804688 c 4
 140.599609375 199.049804688 147.200195312 164.950195312 157.099609375 134.150390625 c 5
 157.099609375 134.150390625 l 5
 157.099609375 134.150390625 l 5
 176.900390625 84.650390625 208.799804688 41.75 252.799804688 9.849609375 c 5
 294.599609375 -26.4501953125 347.400390625 -46.25 398 -63.849609375 c 5
 399.099609375 -63.849609375 l 5
 399.099609375 -63.849609375 l 5
 443.099609375 -73.75 488.200195312 -81.4501953125 534.400390625 -79.25 c 4
 577.299804688 -79.25 620.200195312 -71.5498046875 660.900390625 -59.4501953125 c 5
 660.900390625 -59.4501953125 l 5
 660.900390625 -59.4501953125 l 5
 712.599609375 -41.849609375 763.200195312 -18.75 803.900390625 18.650390625 c 4
 847.900390625 56.0498046875 880.900390625 107.75 895.200195312 163.849609375 c 4
 906.200195312 214.450195312 899.599609375 268.349609375 877.599609375 315.650390625 c 4
 860 354.150390625 833.599609375 387.150390625 802.799804688 414.650390625 c 4
 777.5 438.849609375 745.599609375 455.349609375 715.900390625 471.849609375 c 5
 714.799804688 471.849609375 l 5
 714.799804688 471.849609375 l 5
 700.5 478.450195312 684 482.849609375 670.799804688 488.349609375 c 5
 699.400390625 502.650390625 722.5 523.549804688 746.700195312 543.349609375 c 5
 746.700195312 543.349609375 l 5
 746.700195312 543.349609375 l 5
 776.400390625 571.950195312 799.5 607.150390625 813.799804688 646.75 c 4
 825.900390625 676.450195312 832.5 708.349609375 833.599609375 740.25 c 4
 835.799804688 796.349609375 818.200195312 852.450195312 789.599609375 899.75 c 4
 767.599609375 934.950195312 740.099609375 965.75 703.799804688 987.75 c 4
 620.200195312 1048.25 506.900390625 1061.45019531 411.200195312 1026.25 c 4
 359.5 1007.54980469 312.200195312 974.549804688 277 932.75 c 4
 237.400390625 885.450195312 213.200195312 824.950195312 211 763.349609375 c 4
 206.599609375 694.049804688 229.700195312 622.549804688 274.799804688 568.650390625 c 4
367.200195312 498.25 m 5
 335.299804688 519.150390625 303.400390625 542.25 279.200195312 573.049804688 c 5
 279.200195312 573.049804688 l 5
 279.200195312 573.049804688 l 5
 235.200195312 625.849609375 212.099609375 695.150390625 216.5 763.349609375 c 4
 218.700195312 823.849609375 242.900390625 882.150390625 282.5 928.349609375 c 4
 316.599609375 970.150390625 362.799804688 1000.95019531 413.400390625 1019.65039062 c 4
 506.900390625 1053.75 618 1041.65039062 699.400390625 982.25 c 5
 700.5 982.25 l 5
 700.5 982.25 l 5
 735.700195312 961.349609375 762.099609375 930.549804688 784.099609375 896.450195312 c 4
 812.700195312 850.25 829.200195312 795.25 827 741.349609375 c 4
 825.900390625 710.549804688 820.400390625 677.549804688 808.299804688 648.950195312 c 4
 794 610.450195312 772 576.349609375 742.299804688 547.75 c 5
 757.700195312 562.049804688 758.799804688 562.049804688 742.299804688 547.75 c 5
 717 525.75 690.599609375 504.849609375 660.900390625 491.650390625 c 6
 654.299804688 488.349609375 l 5
 660.900390625 485.049804688 l 6
 678.5 477.349609375 696.099609375 471.849609375 712.599609375 465.25 c 5
 692.799804688 474.049804688 693.900390625 475.150390625 712.599609375 465.25 c 5
 742.299804688 448.75 773.099609375 434.450195312 798.400390625 410.25 c 4
 829.200195312 382.75 855.599609375 350.849609375 872.099609375 313.450195312 c 4
 893 268.349609375 899.599609375 215.549804688 888.599609375 166.049804688 c 4
 875.400390625 111.049804688 843.5 61.5498046875 800.599609375 24.150390625 c 4
 761 -12.150390625 709.299804688 -35.25 658.700195312 -52.849609375 c 5
 679.599609375 -46.25 680.700195312 -46.25 659.799804688 -52.849609375 c 4
 619.099609375 -64.9501953125 576.200195312 -72.650390625 534.400390625 -72.650390625 c 6
 533.299804688 -72.650390625 l 5
 533.299804688 -72.650390625 l 5
 488.200195312 -74.849609375 444.200195312 -68.25 400.200195312 -58.349609375 c 5
 421.099609375 -63.849609375 420 -64.9501953125 400.200195312 -58.349609375 c 5
 349.599609375 -40.75 297.900390625 -22.0498046875 257.200195312 13.150390625 c 5
 257.200195312 14.25 l 5
 256.099609375 14.25 l 5
 213.200195312 45.0498046875 183.5 87.9501953125 163.700195312 136.349609375 c 5
 171.400390625 116.549804688 170.299804688 115.450195312 163.700195312 136.349609375 c 5
 153.799804688 167.150390625 147.200195312 199.049804688 149.400390625 230.950195312 c 4
 152.700195312 281.549804688 173.599609375 331.049804688 206.599609375 369.549804688 c 4
 245.099609375 416.849609375 295.700195312 453.150390625 352.900390625 474.049804688 c 5
 352.900390625 474.049804688 l 5
 352.900390625 474.049804688 l 5
 361.700195312 478.450195312 403.5 489.450195312 367.200195312 498.25 c 5
710.400390625 851.349609375 m 4
 725.799804688 823.849609375 737.900390625 791.950195312 732.400390625 761.150390625 c 5
 732.400390625 761.150390625 l 5
 732.400390625 761.150390625 l 5
 729.099609375 721.549804688 704.900390625 684.150390625 673 659.950195312 c 5
 673 659.950195312 l 5
 673 659.950195312 l 5
 652.099609375 642.349609375 624.599609375 632.450195312 599.299804688 624.75 c 5
 535.5 621.450195312 472.799804688 640.150390625 426.599609375 681.950195312 c 4
 402.400390625 703.950195312 381.5 731.450195312 370.5 761.150390625 c 5
 370.5 761.150390625 l 5
 369.400390625 761.150390625 l 5
 358.400390625 776.549804688 367.200195312 797.450195312 370.5 817.25 c 4
 383.700195312 857.950195312 416.700195312 890.950195312 454.099609375 910.75 c 4
 501.400390625 931.650390625 554.200195312 939.349609375 603.700195312 923.950195312 c 5
 603.700195312 923.950195312 l 5
 604.799804688 923.950195312 l 5
 647.700195312 915.150390625 685.099609375 886.549804688 710.400390625 851.349609375 c 4
363.900390625 818.349609375 m 5
 363.900390625 818.349609375 l 5
 360.599609375 800.75 351.799804688 776.549804688 363.900390625 758.950195312 c 5
 376 727.049804688 398 701.75 422.200195312 677.549804688 c 4
 470.599609375 633.549804688 535.5 614.849609375 599.299804688 618.150390625 c 6
 600.400390625 618.150390625 l 5
 600.400390625 618.150390625 l 5
 626.799804688 625.849609375 655.400390625 636.849609375 677.400390625 655.549804688 c 5
 660.900390625 642.349609375 659.799804688 642.349609375 677.400390625 655.549804688 c 5
 711.5 679.75 735.700195312 719.349609375 739 761.150390625 c 5
 735.700195312 740.25 735.700195312 740.25 739 761.150390625 c 5
 744.5 795.25 731.299804688 826.049804688 715.900390625 854.650390625 c 5
 715.900390625 854.650390625 l 5
 715.900390625 854.650390625 l 5
 689.5 890.950195312 651 919.549804688 605.900390625 929.450195312 c 5
 626.799804688 923.950195312 626.799804688 922.849609375 605.900390625 929.450195312 c 5
 554.200195312 944.849609375 499.200195312 938.25 450.799804688 916.25 c 5
 450.799804688 916.25 l 5
 450.799804688 916.25 l 5
 412.299804688 895.349609375 378.200195312 861.25 363.900390625 818.349609375 c 5
741.200195312 37.349609375 m 4
 776.400390625 35.150390625 765.400390625 96.75 733.5 84.650390625 c 4
 709.299804688 78.0498046875 712.599609375 36.25 741.200195312 37.349609375 c 4
740.099609375 43.9501953125 m 6
 721.400390625 42.849609375 715.900390625 73.650390625 734.599609375 78.0498046875 c 5
 735.700195312 78.0498046875 l 5
 735.700195312 78.0498046875 l 5
 757.700195312 86.849609375 766.5 41.75 741.200195312 43.9501953125 c 5
 741.200195312 43.9501953125 l 5
 740.099609375 43.9501953125 l 6
335.299804688 878.849609375 m 4
 332 861.25 304.5 861.25 300.099609375 876.650390625 c 5
 306.700195312 907.450195312 337.5 912.950195312 335.299804688 878.849609375 c 4
340.799804688 877.75 m 5
 340.799804688 877.75 l 5
 343 921.75 300.099609375 914.049804688 293.5 877.75 c 5
 293.5 876.650390625 l 5
 293.5 876.650390625 l 5
 299 852.450195312 336.400390625 853.549804688 340.799804688 877.75 c 5
EndSplineSet
Validated: 37
EndChar

StartChar: nine
Encoding: 57 57 11
Width: 914
VWidth: 0
Flags: HMW
HStem: 109.353 6.06<738.269 752.914 738.269 752.914> 329.533 6.06<511.524 511.524> 963.813 6.06<562.024 562.024 563.034 563.034>
VStem: 179.234 6.06<632.533 632.533> 261.044 6.06<120.463 120.463> 348.914 6.06<654.753 671.418> 734.734 6.06<296.203 296.203> 888.254 6.06<427.503 428.513>
LayerCount: 2
Fore
SplineSet
547.333984375 1029.95019531 m 4
 466.88671875 1058.16210938 383.234375 1055.359375 309.528320312 1020.30078125 c 5
 213.356445312 986.514648438 130.692382812 904.260742188 99.697265625 811.404296875 c 4
 99.6591796875 811.29296875 l 5
 99.630859375 811.177734375 l 4
 67.0859375 674.537109375 77.6943359375 565.018554688 160.130859375 464.224609375 c 4
 160.172851562 464.174804688 l 5
 160.216796875 464.125 l 4
 200.094726562 420.021484375 254.194335938 383.323242188 310.682617188 363.14453125 c 4
 310.869140625 363.075195312 l 5
 311.065429688 363.037109375 l 4
 348.322265625 355.706054688 380.05078125 342.475585938 415.994140625 346.6796875 c 4
 458.48046875 341.653320312 497.021484375 355.061523438 535.390625 365.948242188 c 4
 535.482421875 365.971679688 l 5
 535.573242188 366.005859375 l 4
 567.1015625 377.45703125 596.3359375 395.194335938 623.71875 413.7421875 c 4
 624.083007812 413.989257812 l 5
 624.34765625 414.340820312 l 4
 636.41796875 430.268554688 630.931640625 405.188476562 637.006835938 389.139648438 c 5
 642.421875 362.4765625 638.388671875 337.643554688 639.69921875 310.629882812 c 4
 638.737304688 250.046875 607.248046875 193.245117188 566.142578125 144.379882812 c 4
 525.864257812 96.1767578125 472.256835938 57.13671875 409.794921875 45.8623046875 c 4
 409.555664062 45.8212890625 l 5
 409.33203125 45.736328125 l 4
 382.208007812 35.5732421875 352.987304688 40.8935546875 323.56640625 39.0146484375 c 4
 309.926757812 39.595703125 295.06640625 43.7578125 282.323242188 46.8125 c 5
 310.520507812 64.7421875 327.551757812 93.8486328125 329.256835938 125.87109375 c 4
 334.590820312 165.353515625 312.927734375 213.77734375 280.823242188 230.104492188 c 4
 249.979492188 247.895507812 213.133789062 251.890625 183.19921875 238.810546875 c 4
 117.820071425 218.616210938 81.328125 157.896484375 99.7548828125 115.8203125 c 5
 113.647460938 42.8408203125 155.02734375 -23.1962890625 187.465820312 -50.744140625 c 4
 213.423828125 -64.564453125 241.591796875 -75.1884765625 269.951171875 -82.91796875 c 4
 270.145507812 -82.9677734375 l 5
 270.345703125 -82.9931640625 l 4
 323.82421875 -87.95703125 381.577463727 -98.1259765625 428.8984375 -83.6181640625 c 4
 435.198282865 -82.2089716012 441.939053601 -80.9329367578 448.999998381 -79.7164867486 c 4
 502.209826906 -70.5495695133 573.601762459 -64.7663676443 611.500976562 -30.8818359375 c 5
 669.727539062 11.7099609375 703.84375 70.958984375 736.095703125 129.001953125 c 4
 770.73828125 163.079101562 771.891601562 214.206054688 791.99609375 249.40234375 c 4
 792.024414062 249.4921875 l 5
 792.048828125 249.583007812 l 4
 802.459960938 297.05859375 811.694335938 344.766601562 818.91796875 393.26171875 c 5
 830.712890625 452.068359375 835.790039062 514.345703125 829.3359375 568.85546875 c 5
 825.614257812 626.282226562 817.75390625 684.358398438 801.692382812 735.419921875 c 5
 783.114257812 798.528320312 756.854492188 852.282226562 722.873046875 902.72265625 c 4
 722.784179688 902.854492188 l 5
 722.682617188 902.975585938 l 4
 672.700195312 960.995117188 620.78125 1016.40039062 547.333984375 1029.95019531 c 4
416.329101562 352.015625 m 6
 415.997070312 352.057617188 l 5
 415.66796875 352.016601562 l 4
 380.975585938 347.6796875 350.109375 360.793945312 312.094726562 368.271484375 c 5
 346.392578125 358.829101562 345.977539062 356.19921875 312.477539062 368.168945312 c 4
 256.98046875 387.99609375 203.559570312 424.147460938 164.174804688 467.705078125 c 5
 187.37109375 440.732421875 186.782226562 440.067382812 164.26171875 467.603515625 c 4
 83.0771484375 566.866210938 72.490234375 674.1875 104.822265625 809.94140625 c 5
 95.0615234375 775.732421875 93.4931640625 775.970703125 104.7578125 809.71484375 c 4
 135.170898438 900.831054688 216.754882812 982.053710938 311.229492188 1015.24316406 c 5
 383.693359375 1050.20996094 466.432617188 1053.109375 546.169921875 1024.74414062 c 4
 546.236328125 1024.72851562 l 5
 546.301757812 1024.71582031 l 4
 617.533203125 1011.57324219 668.637695312 957.534179688 718.638671875 899.491210938 c 5
 697.055664062 927.76953125 698.572265625 929.24609375 718.44921875 899.7421875 c 4
 752.174804688 849.677734375 778.130859375 796.560546875 796.584960938 733.866210938 c 5
 812.4921875 683.30078125 820.299804688 625.77734375 824.014648438 568.456054688 c 5
 830.420898438 514.450195312 825.375 452.4609375 813.64453125 394.083984375 c 5
 806.4765625 345.924804688 797.255859375 298.26171875 786.876953125 250.8984375 c 5
 796.8515625 285.045898438 798.102539062 284.853515625 786.930664062 251.080078125 c 4
 766.83203125 216.043945312 756.510742188 171.038085938 731.443359375 131.615234375 c 4
 718.659179688 108.607421875 700.40625 75.21484375 684.362304688 53.947265625 c 4
 660.186523438 21.8994140625 642.889648438 -1.3095703125 608.306640625 -26.6064453125 c 5
 567.155776383 -63.6483412259 485.882516396 -66.4240401609 433.000001441 -77.2763255186 c 4
 431.18672954 -77.6484361136 429.406837033 -78.0300424637 427.663085938 -78.4228515625 c 4
 427.4296875 -78.46484375 l 5
 427.209960938 -78.55078125 l 4
 382.340744741 -92.2587890625 325.180664062 -82.70703125 270.961914062 -77.6923828125 c 5
 305.889648438 -84.4404296875 305.676757812 -87.12109375 271.354492188 -77.7685546875 c 4
 243.328125 -70.1318359375 215.44921875 -59.595703125 189.90234375 -45.994140625 c 4
 189.828125 -45.9560546875 l 5
 189.75390625 -45.9228515625 l 4
 158.409179688 -18.892578125 118.063476562 46.8671875 104.821289062 117.4921875 c 5
 87.5947265625 156.268554688 122.478967145 214.791015625 185.358398438 233.9296875 c 4
 213.40625 246.186523438 248.606445312 242.52734375 278.21875 225.4453125 c 4
 278.279296875 225.411132812 l 5
 278.342773438 225.380859375 l 4
 307.845703125 210.374023438 329.012695312 163.931640625 323.955078125 126.477539062 c 4
 323.939453125 126.372070312 l 5
 323.93359375 126.263671875 l 4
 322.202148438 93.7685546875 302.7109375 63.3232421875 273.831054688 48.0859375 c 4
 267.33984375 44.66015625 l 5
 274.515625 43.1162109375 l 4
 290.413085938 39.7001953125 306.467773438 34.4013671875 323.481445312 33.6767578125 c 4
 323.622070312 33.669921875 l 5
 323.763671875 33.6796875 l 4
 352.1328125 35.490234375 382.3984375 29.9462890625 411.204101562 40.740234375 c 5
 376.905273438 31.3017578125 375.734375 34.2919921875 410.7421875 40.6123046875 c 4
 474.831054688 52.1787109375 529.484375 92.1884765625 570.3125 141.047851562 c 4
 570.38671875 141.137695312 l 5
 570.454101562 141.234375 l 4
 611.859375 190.588867188 644.041015625 248.516601562 645.037109375 310.590820312 c 4
 645.041015625 310.689453125 l 5
 645.03515625 310.790039062 l 4
 643.76953125 336.86328125 647.82421875 363.873046875 642.140625 390.639648438 c 4
 642.08203125 390.924804688 l 5
 641.959960938 391.190429688 l 4
 639.026367188 397.62890625 638.40625 441.4921875 620.7265625 418.161132812 c 5
 593.490234375 399.713867188 564.61328125 382.231445312 533.750976562 371.020507812 c 5
 567.604492188 381.956054688 568.157226562 380.7890625 533.93359375 371.080078125 c 4
 495.405273438 360.1484375 456.041015625 347.018554688 416.329101562 352.015625 c 6
488.072265625 473.859375 m 6
 488.485351562 473.903320312 l 5
 488.866210938 474.073242188 l 4
 677.307617188 557.845703125 669.359375 881.418945312 435.6875 927.07421875 c 4
 435.272460938 927.157226562 l 5
 434.852539062 927.103515625 l 4
 327.49609375 913.98046875 260.189453125 762.399414062 275.409179688 638.567382812 c 4
 287.427734375 540.794921875 351.383789062 458.924804688 488.072265625 473.859375 c 6
487.077148438 479.119140625 m 5
 353.831054688 464.922851562 292.959960938 543.110351562 280.857421875 638.010742188 c 4
 265.161132812 761.084960938 332.970703125 908.8203125 435.083007812 921.755859375 c 5
 663.873046875 876.333984375 669.29296875 560.844726562 487.077148438 479.119140625 c 5
206.431640625 907.071289062 m 4
 161.459960938 871.512695312 239.069335938 784.131835938 274.626953125 865.094726562 c 4
 274.827148438 865.55078125 l 5
 274.940429688 866.036132812 l 4
 283.583984375 903.408203125 234.97265625 932.107421875 206.431640625 907.071289062 c 4
213.356445312 898.974609375 m 6
 234.977539062 917.939453125 269.361328125 894.6015625 264.681640625 868.920898438 c 5
 234.118164062 802.79296875 184.4765625 876.129882812 213.146484375 898.798828125 c 4
 213.25390625 898.883789062 l 5
 213.356445312 898.974609375 l 6
606.927734375 127.265625 m 4
 583.830078125 109.198242188 592.881835938 77.435546875 611.997070312 61.5625 c 4
 630.25 46.4033203125 657.674804688 45.7294921875 675.05078125 85.2890625 c 4
 675.24609375 85.736328125 l 5
 675.359375 86.212890625 l 4
 684.131835938 123.602539062 635.337890625 152.3359375 606.927734375 127.265625 c 4
613.858398438 119.174804688 m 6
 635.372070312 138.158203125 669.864257812 114.797851562 665.107421875 89.1240234375 c 5
 634.549804688 23.0107421875 584.875976562 96.490234375 613.616210938 118.971679688 c 4
 613.740234375 119.069335938 l 5
 613.858398438 119.174804688 l 6
EndSplineSet
Validated: 37
EndChar

StartChar: afii10017
Encoding: 1040 1040 12
Width: 1132
VWidth: 0
Flags: HMW
HStem: -25.9482 5.3361 51.4253 8.00415<989.249 1011.93> 280.878 6.67013<346.249 665.081> 370.257 6.67013<322.236 634.398 322.236 645.071>
LayerCount: 2
Fore
SplineSet
815.041992188 -76.5205078125 m 0
 899.274414062 -75.181640625 987.521484375 -77.857421875 1071.75488281 -75.181640625 c 2
 1073.09375 -75.181640625 l 1
 1115.87792969 -63.1484375 1110.53027344 7.7158203125 1065.0703125 10.388671875 c 2
 1041.00390625 10.388671875 l 2
 1014.26171875 9.0517578125 995.54296875 33.12109375 990.1953125 58.5224609375 c 0
 867.185546875 376.743164062 746.850585938 696.299804688 623.840820312 1014.52050781 c 0
 602.448242188 1057.30566406 532.921875 1051.95605469 518.21484375 1006.49707031 c 0
 392.53125 680.255859375 268.184570312 352.67578125 142.500976562 26.4345703125 c 1
 125.12109375 -0.306640625 91.693359375 13.064453125 62.27734375 10.388671875 c 0
 16.818359375 10.388671875 8.7958984375 -59.1376953125 48.90625 -73.8447265625 c 1
 50.2451171875 -75.181640625 l 1
 90.3544921875 -80.5302734375 131.8046875 -75.181640625 171.916992188 -76.5205078125 c 0
 206.6796875 -75.181640625 242.78125 -80.5302734375 277.54296875 -75.181640625 c 1
 277.54296875 -73.8447265625 l 1
 278.879882812 -73.8447265625 l 1
 318.9921875 -59.1376953125 309.633789062 10.388671875 264.172851562 10.388671875 c 0
 244.1171875 6.37890625 268.184570312 27.7705078125 269.521484375 47.8271484375 c 1
 290.913085938 107.995117188 309.633789062 168.162109375 332.36328125 224.318359375 c 1
 348.407226562 240.36328125 373.811523438 228.329101562 397.87890625 232.340820312 c 0
 503.505859375 232.340820312 610.470703125 233.678710938 714.762695312 232.340820312 c 1
 736.154296875 222.981445312 733.48046875 194.90234375 745.513671875 172.172851562 c 2
 803.0078125 11.7255859375 l 1
 773.592773438 14.400390625 749.524414062 -15.015625 757.547851562 -44.4306640625 c 0
 762.895507812 -73.8447265625 790.973632812 -80.5302734375 815.041992188 -76.5205078125 c 0
1042.33984375 2.3662109375 m 2
 1065.0703125 2.3662109375 l 2
 1101.171875 1.029296875 1106.52050781 -57.8017578125 1071.75488281 -68.4970703125 c 1
 987.521484375 -71.171875 897.938476562 -68.4970703125 813.704101562 -69.833984375 c 0
 792.309570312 -73.8447265625 769.580078125 -64.486328125 765.569335938 -43.09375 c 2
 765.569335938 -41.7548828125 l 1
 757.547851562 -16.3515625 780.276367188 10.388671875 807.018554688 3.705078125 c 2
 815.041992188 1.029296875 l 1
 752.198242188 174.848632812 l 2
 742.83984375 192.229492188 744.177734375 228.329101562 717.435546875 239.026367188 c 1
 716.098632812 239.026367188 l 2
 610.470703125 240.36328125 503.505859375 240.36328125 397.87890625 240.36328125 c 0
 377.822265625 236.3515625 345.733398438 249.723632812 327.014648438 229.666992188 c 1
 327.014648438 228.329101562 l 1
 325.678710938 228.329101562 l 1
 301.611328125 169.499023438 284.229492188 107.995117188 262.836914062 49.1630859375 c 1
 262.836914062 47.8271484375 l 2
 262.836914062 42.478515625 233.421875 -2.9814453125 264.172851562 3.705078125 c 1
 300.2734375 3.705078125 308.294921875 -55.125 276.20703125 -67.1591796875 c 1
 242.78125 -72.5087890625 208.015625 -68.4970703125 171.916992188 -69.833984375 c 1
 193.309570312 -69.833984375 193.309570312 -71.171875 171.916992188 -69.833984375 c 1
 130.466796875 -68.4970703125 93.029296875 -72.5087890625 51.58203125 -67.1591796875 c 1
 20.828125 -53.7880859375 26.177734375 3.705078125 62.27734375 3.705078125 c 2
 63.61328125 3.705078125 l 2
 89.0185546875 3.705078125 127.28125 -7.08984375 146 25 c 1
 271.68359375 351.2421875 399.280865973 679.632337265 522 1007 c 0
 538.80969892 1051.8418406 610.146484375 1051.14453125 623 1008 c 1
 613.641601562 1028.0546875 639.211914062 968.147460938 647 948 c 0
 770.008789062 629.78125 860.500976562 374.068359375 983.508789062 55.8486328125 c 1
 976.82421875 75.9052734375 978.162109375 78.5791015625 982.172851562 57.185546875 c 0
 987.521484375 27.7705078125 1010.25097656 1.029296875 1042.33984375 2.3662109375 c 2
532.921875 739.086914062 m 1
 530.248046875 748.444335938 l 1
 526.237304688 739.086914062 l 2
 472.754882812 601.369140625 419.272460938 463.651367188 364.452148438 325.934570312 c 1
 361.778320312 321.923828125 l 1
 697.380859375 321.923828125 l 1
 696.041992188 325.934570312 l 1
 642.560546875 463.651367188 586.405273438 601.369140625 532.921875 739.086914062 c 1
530.248046875 727.051757812 m 1
 582.391601562 593.346679688 634.538085938 460.977539062 686.684570312 328.608398438 c 1
 373.811523438 328.608398438 l 1
 427.293945312 462.314453125 478.102539062 594.684570312 530.248046875 727.051757812 c 1
547.629882812 840.1171875 m 4
 551.640625 809.366210938 602.448242188 817.387695312 597.1015625 850.814453125 c 4
 589.078125 880.229492188 540.944335938 869.533203125 547.629882812 840.1171875 c 4
589.078125 849.4765625 m 4
 593.08984375 825.409179688 558.326171875 822.736328125 555.651367188 841.453125 c 4
 551.640625 861.508789062 583.729492188 869.533203125 589.078125 849.4765625 c 4
865.848632812 82.5908203125 m 0
 871.198242188 53.17578125 919.331054688 61.197265625 915.3203125 93.2880859375 c 2
 915.3203125 94.6240234375 l 1
 907.297851562 124.0390625 859.163085938 112.005859375 865.848632812 82.5908203125 c 0
872.53515625 83.927734375 m 0
 868.522460938 103.984375 901.950195312 110.668945312 907.297851562 90.6123046875 c 1
 907.297851562 90.6123046875 877.8828125 47.8271484375 872.53515625 83.927734375 c 0
EndSplineSet
Validated: 524325
EndChar

StartChar: afii10018
Encoding: 1041 1041 13
Width: 1171
VWidth: 0
Flags: HMW
HStem: -240.422 7.29304<-53.4232 34.0932 34.0932 471.675> -152.906 7.29304<143.489 250.453 143.489 250.453 143.489 250.453> 283.461 7.29304<136.196 143.489> 372.193 6.07753<143.489 418.193 143.489 418.193> 722.259 7.29304 806.129 7.29304<-58.2853 600.519 599.304 600.519>
VStem: -12.096 7.29304<-122.518 680.932 -122.518 682.147> 136.196 7.29304<-145.612 283.461 -145.612 290.754 378.271 722.259> 585.933 7.29304<82.9027 82.9027> 730.578 7.29304<626.234 626.234>
LayerCount: 2
Fore
SplineSet
242.674804688 48.03125 m 0
 241.3984375 25.05859375 219.700195312 4.63671875 196.728515625 9.7421875 c 1
 195.451171875 9.7421875 l 2
 172.478515625 7.1904296875 162.268554688 -11.9541015625 160.9921875 -31.0966796875 c 0
 159.716796875 -52.794921875 171.203125 -74.4912109375 199.28125 -75.767578125 c 0
 383.065429688 -75.767578125 566.850585938 -78.3203125 750.633789062 -75.767578125 c 1
 889.748046875 -68.1103515625 1017.37695312 37.8212890625 1048.0078125 173.106445312 c 0
 1079.91503906 298.182617188 1027.5859375 439.850585938 920.379882812 513.874023438 c 0
 855.290039062 562.374023438 772.331054688 577.6875 693.200195312 573.860351562 c 2
 406.037109375 573.860351562 l 1
 406.037109375 935.046875 l 1
 545.15234375 935.046875 677.885742188 936.323242188 813.171875 933.770507812 c 1
 874.43359375 927.388671875 929.3125 883.997070312 952.287109375 826.561523438 c 0
 958.66796875 815.076171875 972.70703125 808.6953125 985.469726562 806.141601562 c 0
 1004.61328125 803.590820312 1026.31152344 811.247070312 1030.13964844 834.219726562 c 0
 1028.86328125 866.126953125 1008.44335938 891.65234375 999.508789062 919.731445312 c 0
 982.91796875 952.915039062 971.430664062 989.927734375 952.287109375 1023.11035156 c 1
 951.01171875 1024.38574219 l 2
 930.590820312 1038.42578125 905.064453125 1028.21484375 885.920898438 1030.76757812 c 0
 656.188476562 1030.76757812 423.90625 1032.04492188 194.17578125 1030.76757812 c 0
 175.03125 1026.94042969 163.543945312 1010.34765625 162.268554688 992.479492188 c 0
 159.716796875 970.782226562 169.924804688 945.2578125 198.002929688 942.704101562 c 2
 199.28125 942.704101562 l 1
 227.359375 947.809570312 246.501953125 921.0078125 242.674804688 892.930664062 c 2
 242.674804688 891.65234375 l 2
 242.674804688 610.87109375 243.950195312 328.813476562 242.674804688 48.03125 c 0
199.28125 -68.1103515625 m 0
 177.583984375 -68.1103515625 167.374023438 -50.2421875 168.649414062 -31.0966796875 c 0
 168.649414062 -14.5068359375 177.583984375 -0.4677734375 195.451171875 2.0849609375 c 1
 223.530273438 -3.0205078125 249.055664062 19.953125 250.333007812 48.03125 c 0
 251.607421875 328.813476562 250.333007812 610.87109375 250.333007812 891.65234375 c 0
 254.161132812 921.0078125 232.463867188 956.744140625 198.002929688 950.36328125 c 1
 177.583984375 952.915039062 167.374023438 972.059570312 169.924804688 992.479492188 c 0
 171.203125 1006.51953125 178.860351562 1019.28027344 194.17578125 1023.11035156 c 0
 423.90625 1024.38574219 656.188476562 1023.11035156 885.920898438 1023.11035156 c 1
 882.090820312 1023.11035156 880.815429688 1024.38574219 884.642578125 1023.11035156 c 0
 906.33984375 1019.28027344 929.3125 1029.49121094 945.90625 1018.00488281 c 1
 962.498046875 987.373046875 975.259765625 950.36328125 991.8515625 915.90234375 c 1
 990.575195312 919.731445312 990.575195312 921.0078125 991.8515625 917.178710938 c 0
 1002.0625 887.82421875 1021.20605469 864.8515625 1022.48242188 834.219726562 c 0
 1019.93066406 817.62890625 1003.33789062 809.971679688 985.469726562 813.80078125 c 0
 973.984375 816.352539062 965.049804688 821.45703125 958.66796875 830.392578125 c 0
 934.41796875 889.100585938 879.5390625 935.046875 814.44921875 941.428710938 c 1
 813.171875 941.428710938 l 2
 675.334960938 943.98046875 537.495117188 941.428710938 402.209960938 942.704101562 c 2
 398.380859375 942.704101562 l 1
 398.380859375 568.754882812 l 1
 693.200195312 567.479492188 l 1
 694.479492188 567.479492188 l 2
 772.331054688 571.305664062 852.735351562 554.71484375 916.55078125 507.491210938 c 0
 1021.20605469 436.020507812 1073.53417969 298.182617188 1041.62597656 175.66015625 c 0
 1010.99707031 42.9248046875 885.920898438 -61.7294921875 750.633789062 -68.1103515625 c 0
 566.850585938 -70.662109375 383.065429688 -68.1103515625 199.28125 -68.1103515625 c 0
665.123046875 473.033203125 m 0
 771.055664062 462.822265625 865.5 372.20703125 870.604492188 263.72265625 c 0
 879.5390625 159.068359375 802.962890625 58.2421875 702.135742188 32.716796875 c 0
 643.427734375 17.400390625 579.612304688 26.3349609375 518.350585938 23.78125 c 2
 406.037109375 23.78125 l 1
 406.037109375 474.309570312 l 1
 492.826171875 473.033203125 578.3359375 476.861328125 665.123046875 473.033203125 c 0
402.209960938 481.966796875 m 2
 398.380859375 481.966796875 l 1
 398.380859375 16.1240234375 l 1
 518.350585938 16.1240234375 l 2
 579.612304688 18.6767578125 643.427734375 8.4658203125 704.6875 25.05859375 c 0
 809.34375 53.13671875 887.196289062 156.513671875 878.262695312 264.998046875 c 0
 873.15625 376.03515625 776.159179688 470.48046875 666.399414062 480.690429688 c 0
 578.3359375 484.51953125 490.272460938 480.690429688 402.209960938 481.966796875 c 2
287.344726562 855.91796875 m 0
 292.44921875 843.154296875 305.211914062 840.6015625 315.420898438 844.430664062 c 0
 328.184570312 849.536132812 339.670898438 863.575195312 330.737304688 880.166992188 c 1
 329.4609375 880.166992188 l 1
 312.87109375 903.139648438 275.858398438 881.443359375 287.344726562 855.91796875 c 0
293.725585938 858.469726562 m 0
 286.068359375 875.0625 312.87109375 891.65234375 324.357421875 876.337890625 c 1
 324.357421875 876.337890625 325.631835938 855.91796875 314.146484375 852.08984375 c 0
 305.211914062 849.536132812 296.27734375 850.8125 293.725585938 858.469726562 c 0
895.5 102.28125 m 4
 900.604492188 89.517578125 914.642578125 88.2421875 924.853515625 92.0693359375 c 4
 937.6171875 97.17578125 947.827148438 109.9375 938.893554688 126.530273438 c 4
 922.302734375 149.501953125 884.013671875 127.805664062 895.5 102.28125 c 4
903.15625 106.111328125 m 5
 895.5 122.700195312 921.025390625 138.016601562 932.512695312 122.700195312 c 5
 932.512695312 122.700195312 933.788085938 102.28125 922.302734375 98.451171875 c 4
 913.368164062 95.8994140625 905.709960938 97.17578125 903.15625 104.833007812 c 6
 903.15625 106.111328125 l 5
EndSplineSet
Validated: 37
EndChar

StartChar: afii10019
Encoding: 1042 1042 14
Width: 1024
VWidth: 0
Flags: HMW
HStem: -214 5 -131 7<141 238 141 238 141 238> -54 6<71 80.5> 288 7<134 141> 373 7<141 354 141 354 141 360> 709 7 790 6<-54 396>
VStem: -8 7<-102 667> 134 7<-131 288 -124 288 -124 292 -124 295 380 709> 553 7<93 93>
LayerCount: 2
Fore
SplineSet
636.329101562 1033.14746094 m 0
 645.1484375 1033.14746094 652.866210938 1034.25 661.685546875 1033.14746094 c 0
 771.935546875 1025.4296875 873.366210938 941.639648438 902.03125 834.697265625 c 0
 931.798828125 737.677734375 894.314453125 629.6328125 819.34375 561.27734375 c 1
 789.576171875 544.740234375 829.266601562 532.612304688 836.983398438 525.998046875 c 0
 952.74609375 452.129882812 1005.66601562 298.8828125 970.385742188 167.685546875 c 0
 941.720703125 45.3076171875 833.676757812 -56.123046875 706.888671875 -66.044921875 c 1
 599.946289062 -69.3525390625 480.00390625 -67.1474609375 373.060546875 -68.25 c 0
 290.373046875 -67.1474609375 209.891601562 -70.4541015625 126.1015625 -67.1474609375 c 1
 94.12890625 -57.224609375 94.12890625 -0.998046875 130.510742188 4.5146484375 c 1
 158.073242188 0.1044921875 184.533203125 22.154296875 185.635742188 49.716796875 c 0
 186.739257812 331.958007812 185.635742188 615.299804688 185.635742188 897.540039062 c 1
 184.533203125 876.591796875 182.329101562 875.490234375 185.635742188 896.4375 c 0
 190.045898438 925.102539062 171.303710938 963.689453125 134.920898438 958.177734375 c 1
 99.6416015625 960.3828125 91.9228515625 1023.22460938 128.306640625 1033.14746094 c 1
 293.681640625 1035.35253906 470.954101562 1032.04492188 636.329101562 1033.14746094 c 0
177.918945312 49.716796875 m 0
 176.81640625 25.462890625 155.869140625 6.720703125 131.614257812 11.1298828125 c 1
 130.510742188 11.1298828125 l 1
 86.4111328125 6.720703125 83.103515625 -62.7373046875 124.998046875 -73.7626953125 c 1
 126.1015625 -73.7626953125 l 2
 208.7890625 -77.0703125 290.373046875 -73.7626953125 373.060546875 -74.865234375 c 0
 480.00390625 -73.7626953125 601.048828125 -77.0703125 707.991210938 -73.7626953125 c 1
 838.0859375 -62.7373046875 947.233398438 42 977.001953125 166.583007812 c 0
 1013.38378906 301.087890625 958.258789062 456.540039062 841.393554688 532.612304688 c 0
 825.958984375 545.841796875 803.908203125 543.637695312 823.75390625 554.662109375 c 1
 823.75390625 555.764648438 l 1
 900.928710938 624.120117188 940.619140625 736.575195312 909.748046875 836.90234375 c 0
 879.981445312 947.15234375 776.345703125 1030.94238281 662.7890625 1038.66015625 c 0
 653.96875 1039.76269531 645.1484375 1040.86523438 636.329101562 1040.86523438 c 0
 470.954101562 1039.76269531 293.681640625 1041.96679688 128.306640625 1039.76269531 c 2
 127.204101562 1039.76269531 l 1
 83.103515625 1028.73730469 87.513671875 952.665039062 134.920898438 951.5625 c 2
 136.0234375 951.5625 l 1
 164.689453125 957.075195312 182.329101562 924 177.918945312 897.540039062 c 1
 177.918945312 615.299804688 179.021484375 331.958007812 177.918945312 49.716796875 c 0
615.380859375 478.58984375 m 1
 721.220703125 467.564453125 806.114257812 369.442382812 809.420898438 264.705078125 c 0
 817.138671875 158.865234375 742.168945312 53.025390625 637.431640625 30.974609375 c 0
 580.1015625 21.052734375 507.56640625 27.6669921875 449.133789062 25.462890625 c 2
 342.19140625 25.462890625 l 1
 342.19140625 479.692382812 l 1
 429.2890625 478.58984375 528.283203125 481.897460938 615.380859375 478.58984375 c 1
616.483398438 486.307617188 m 1
 528.283203125 489.615234375 427.083984375 486.307617188 338.883789062 487.41015625 c 2
 334.473632812 487.41015625 l 1
 334.473632812 484.102539062 l 1
 334.473632812 22.154296875 l 1
 334.473632812 17.7451171875 l 1
 449.133789062 17.7451171875 l 2
 507.56640625 19.9501953125 580.1015625 12.2333984375 638.533203125 23.2578125 c 0
 747.681640625 47.5126953125 824.856445312 155.557617188 817.138671875 264.705078125 c 0
 813.831054688 373.852539062 726.733398438 475.283203125 616.483398438 486.307617188 c 1
805.010742188 852.6171875 m 5
 805.010742188 851.514648438 l 5
 780.755859375 837.182617188 797.293945312 793.083007812 828.1640625 808.517578125 c 5
 829.266601562 808.517578125 l 5
 853.521484375 823.952148438 831.470703125 863.642578125 805.010742188 852.6171875 c 5
808.318359375 844.900390625 m 5
 827.060546875 851.514648438 840.291015625 825.0546875 824.856445312 815.1328125 c 5
 824.856445312 815.1328125 776.345703125 823.952148438 808.318359375 844.900390625 c 5
272.733398438 68.4599609375 m 0
 248.478515625 62.947265625 238.556640625 96.0224609375 266.119140625 102.637695312 c 0
 284.861328125 102.637695312 290.373046875 73.97265625 272.733398438 68.4599609375 c 0
266.119140625 109.251953125 m 2
 265.016601562 109.251953125 l 1
 227.53125 101.53515625 240.760742188 53.025390625 273.8359375 60.7421875 c 0
 300.295898438 68.4599609375 293.681640625 110.354492188 266.119140625 109.251953125 c 2
590.0234375 573.404296875 m 2
 603.25390625 573.404296875 615.380859375 574.5078125 627.508789062 578.916992188 c 0
 709.09375 607.583007812 746.579101562 702.397460938 738.861328125 781.77734375 c 0
 734.451171875 855.645507812 688.146484375 936.126953125 608.766601562 949.358398438 c 1
 607.6640625 949.358398438 l 2
 522.771484375 952.665039062 423.776367188 950.459960938 338.883789062 951.5625 c 2
 334.473632812 951.5625 l 1
 334.473632812 573.404296875 l 1
 590.0234375 573.404296875 l 2
607.6640625 942.7421875 m 1
 681.53125 930.615234375 726.733398438 852.337890625 731.143554688 780.674804688 c 0
 737.758789062 703.5 702.478515625 613.095703125 625.303710938 586.634765625 c 0
 614.279296875 583.327148438 602.151367188 581.123046875 590.0234375 581.123046875 c 2
 342.19140625 581.123046875 l 1
 342.19140625 943.845703125 l 1
 427.083984375 942.7421875 523.873046875 946.049804688 607.6640625 942.7421875 c 1
EndSplineSet
EndChar

StartChar: afii10020
Encoding: 1043 1043 15
Width: 1024
VWidth: 0
Flags: HMW
HStem: -32 5<78 78 79 79 280 280> 106 5<171.5 175 169 176> 713 6 778 6<83 83>
VStem: 119 5<577 681 58 682> 158 5<94 97 90 98.5> 234 6<63 713 63 713 63 719> 699 6<639 639>
LayerCount: 2
Fore
SplineSet
197.676757812 50.765625 m 0
 196.323242188 27.755859375 176.021484375 8.806640625 153.01171875 12.8662109375 c 2
 151.65625 12.8662109375 l 2
 134.063476562 11.513671875 123.235351562 -0.66796875 119.174804688 -14.2041015625 c 0
 112.408203125 -35.8583984375 119.174804688 -62.9296875 143.537109375 -71.0498046875 c 1
 144.889648438 -71.0498046875 l 2
 193.6171875 -75.109375 242.342773438 -71.0498046875 291.068359375 -72.404296875 c 0
 333.02734375 -71.0498046875 374.984375 -75.109375 416.942382812 -71.0498046875 c 2
 418.296875 -71.0498046875 l 1
 434.538085938 -65.6357421875 442.66015625 -50.748046875 444.014648438 -35.8583984375 c 0
 446.71875 -14.2041015625 435.891601562 10.1591796875 410.176757812 12.8662109375 c 2
 408.823242188 12.8662109375 l 1
 381.752929688 7.453125 361.450195312 30.462890625 362.803710938 57.5322265625 c 2
 362.803710938 937.3046875 l 1
 500.860351562 937.3046875 633.50390625 938.659179688 770.206054688 937.3046875 c 0
 832.466796875 931.890625 889.313476562 888.580078125 913.676757812 830.377929688 c 1
 913.676757812 829.024414062 l 1
 920.443359375 818.197265625 932.625 811.4296875 946.162109375 808.723632812 c 0
 965.110351562 806.016601562 988.119140625 812.783203125 992.1796875 835.791992188 c 2
 992.1796875 837.147460938 l 2
 990.825195312 868.27734375 970.5234375 893.993164062 961.048828125 921.064453125 c 0
 944.807617188 954.901367188 932.625 991.444335938 913.676757812 1025.28125 c 1
 912.323242188 1026.63574219 l 2
 892.020507812 1041.52539062 866.3046875 1030.6953125 847.35546875 1033.40429688 c 0
 614.553710938 1033.40429688 383.10546875 1034.75585938 150.3046875 1033.40429688 c 2
 148.951171875 1033.40429688 l 2
 128.6484375 1029.34472656 119.174804688 1011.74804688 117.819335938 994.15234375 c 0
 116.466796875 972.49609375 127.295898438 948.133789062 153.01171875 945.42578125 c 2
 154.365234375 945.42578125 l 1
 181.434570312 950.841796875 203.090820312 921.064453125 199.029296875 895.345703125 c 2
 199.029296875 893.993164062 l 2
 199.029296875 612.466796875 199.029296875 332.291992188 197.676757812 50.765625 c 0
354.682617188 57.5322265625 m 2
 353.329101562 27.755859375 376.338867188 0.685546875 410.176757812 6.0986328125 c 1
 429.124023438 3.3935546875 439.953125 -15.556640625 437.247070312 -35.8583984375 c 0
 435.891601562 -48.0400390625 429.124023438 -60.220703125 415.58984375 -64.28125 c 0
 374.984375 -68.3447265625 333.02734375 -64.28125 291.068359375 -65.6357421875 c 0
 242.342773438 -64.28125 194.970703125 -68.3447265625 144.889648438 -64.28125 c 0
 125.94140625 -57.515625 119.174804688 -34.5048828125 125.94140625 -15.556640625 c 0
 130.000976562 -4.728515625 138.123046875 4.74609375 151.65625 6.0986328125 c 0
 178.727539062 0.685546875 204.443359375 20.9892578125 205.797851562 50.765625 c 0
 207.15234375 332.291992188 205.797851562 612.466796875 205.797851562 893.993164062 c 0
 209.858398438 923.770507812 188.203125 957.606445312 153.01171875 952.192382812 c 1
 132.709960938 954.901367188 120.52734375 975.203125 123.235351562 995.505859375 c 0
 124.587890625 1010.39355469 134.063476562 1021.22167969 150.3046875 1025.28125 c 0
 381.752929688 1026.63574219 615.908203125 1026.63574219 847.35546875 1026.63574219 c 1
 843.295898438 1026.63574219 841.940429688 1027.98925781 846 1026.63574219 c 0
 867.659179688 1023.9296875 890.666992188 1032.04980469 906.91015625 1021.22167969 c 1
 924.50390625 990.092773438 938.041015625 952.192382812 954.28125 918.35546875 c 1
 952.928710938 922.416015625 951.575195312 922.416015625 952.928710938 918.35546875 c 0
 962.401367188 888.580078125 982.704101562 866.923828125 984.05859375 837.147460938 c 1
 978.64453125 810.076171875 936.684570312 810.076171875 920.443359375 833.086914062 c 1
 896.081054688 892.639648438 836.52734375 938.659179688 770.206054688 944.072265625 c 0
 633.50390625 945.42578125 495.446289062 945.42578125 358.743164062 945.42578125 c 2
 354.682617188 945.42578125 l 1
 354.682617188 57.5322265625 l 2
274.827148438 122.500976562 m 0
 258.584960938 122.500976562 251.817382812 111.671875 251.817382812 99.490234375 c 0
 253.169921875 85.9560546875 265.350585938 69.7138671875 282.948242188 73.7734375 c 0
 310.016601562 80.5419921875 304.602539062 123.852539062 274.827148438 122.500976562 c 0
276.1796875 115.733398438 m 0
 295.12890625 117.0859375 299.188476562 84.6015625 280.240234375 80.5419921875 c 0
 268.059570312 77.8349609375 258.584960938 88.662109375 258.584960938 99.490234375 c 0
 258.584960938 107.611328125 264 115.733398438 276.1796875 115.733398438 c 0
251.817382812 862.983398438 m 4
 257.231445312 849.44921875 270.764648438 846.7421875 281.59375 850.80078125 c 4
 293.775390625 856.21484375 304.602539062 869.752929688 295.12890625 885.993164062 c 5
 295.12890625 887.345703125 l 5
 278.887695312 909.00390625 240.989257812 888.701171875 251.817382812 862.983398438 c 4
258.584960938 865.690429688 m 4
 251.817382812 883.286132812 277.533203125 896.8203125 288.362304688 881.932617188 c 5
 288.362304688 881.932617188 289.713867188 864.338867188 278.887695312 860.27734375 c 4
 270.764648438 857.569335938 261.291015625 857.569335938 258.584960938 865.690429688 c 4
EndSplineSet
EndChar

StartChar: afii10021
Encoding: 1044 1044 16
Width: 1089
VWidth: 0
Flags: HMW
HStem: -153.65 6.6<-8.05 739.95 -8.05 747.65> -79.95 6.6<62.35 71.7> -63.45 5.5<151.45 159.15 151.45 159.15> 650.45 6.6<593.65 593.65> 731.85 6.6<270.25 506.75 506.75 506.75> 820.95 6.6<143.75 144.85 143.75 144.85 143.75 144.85>
VStem: -14.65 6.6<-147.05 -72.25 -147.05 -70.05 -147.05 -68.95> 176.75 6.6<644.95 644.95> 263.65 6.6<731.85 738.45 731.85 735.15> 266.95 6.6<418.35 418.35> 506.75 6.6<-32.65 731.85> 667.35 6.6<-4.05 -2.95 -2.95 706.55> 739.95 7.7<-153.65 -147.05>
LayerCount: 2
Fore
SplineSet
301.513671875 827.840820312 m 4xff38
 308.990234375 672.053710938 316.46875 513.7734375 279.080078125 361.724609375 c 4
 247.922851562 232.110351562 165.666015625 123.681640625 84.65625 18.9921875 c 5
 84.65625 17.74609375 l 5
 84.65625 -76.9736328125 l 5
 948.34375 -76.9736328125 l 5
 948.34375 -73.2333984375 l 6
 945.8515625 -49.5546875 954.575195312 -22.1357421875 940.865234375 2.7900390625 c 5
 940.865234375 4.0361328125 l 5
 918.431640625 32.7021484375 876.057617188 31.455078125 867.333984375 66.3515625 c 4
 864.840820312 75.0751953125 864.840820312 83.7998046875 864.840820312 92.5234375 c 6
 864.840820312 897.633789062 l 6
 866.0859375 921.313476562 886.028320312 940.008789062 909.708007812 941.25390625 c 6
 910.955078125 941.25390625 l 5
 952.08203125 954.963867188 948.34375 1019.77050781 908.4609375 1032.23339844 c 4
 873.565429688 1039.71191406 837.422851562 1034.7265625 803.771484375 1035.97363281 c 6
 802.526367188 1035.97363281 l 6
 623.05859375 1035.97363281 444.837890625 1035.97363281 265.370117188 1034.7265625 c 6
 264.124023438 1034.7265625 l 5
 221.75 1029.7421875 206.794921875 968.672851562 244.18359375 946.240234375 c 5
 246.674804688 946.240234375 l 5
 246.674804688 944.9921875 l 5
 265.370117188 936.26953125 285.311523438 936.26953125 292.7890625 917.575195312 c 4
 305.250976562 890.15625 296.52734375 858.999023438 301.513671875 827.840820312 c 4xff38
857.362304688 93.7705078125 m 6
 857.362304688 83.7998046875 857.362304688 73.830078125 859.85546875 63.859375 c 4
 869.825195312 23.9775390625 915.938476562 22.73046875 934.633789062 -0.9482421875 c 5
 922.169921875 16.4990234375 924.6640625 17.74609375 934.633789062 -0.9482421875 c 5
 945.8515625 -20.8896484375 938.372070312 -44.568359375 939.619140625 -69.4951171875 c 5
 92.134765625 -69.4951171875 l 5
 92.134765625 15.25390625 l 5
 170.651367188 117.450195312 254.153320312 229.6171875 286.557617188 360.478515625 c 4
 323.946289062 513.7734375 316.46875 672.053710938 308.990234375 827.840820312 c 4
 304.005859375 856.505859375 313.9765625 890.15625 300.267578125 920.06640625 c 4
 290.295898438 943.74609375 264.124023438 944.9921875 247.922851562 952.470703125 c 5
 266.6171875 942.500976562 267.862304688 941.25390625 249.168945312 952.470703125 c 4
 219.2578125 971.166015625 230.473632812 1023.50976562 265.370117188 1027.24902344 c 5
 244.18359375 1026.00292969 244.18359375 1027.24902344 265.370117188 1027.24902344 c 5
 444.837890625 1028.49511719 623.05859375 1028.49511719 802.526367188 1028.49511719 c 5
 781.338867188 1028.49511719 781.338867188 1029.7421875 802.526367188 1028.49511719 c 5
 837.422851562 1027.24902344 873.565429688 1030.98730469 907.21484375 1024.75585938 c 5
 886.028320312 1029.7421875 886.028320312 1030.98730469 905.96875 1024.75585938 c 4
 939.619140625 1014.78613281 942.112304688 961.1953125 908.4609375 948.732421875 c 5
 881.04296875 946.240234375 858.610351562 926.297851562 857.362304688 897.633789062 c 6
 857.362304688 93.7705078125 l 6
780.092773438 801.66796875 m 4
 757.659179688 796.68359375 746.442382812 829.087890625 773.861328125 834.072265625 c 4
 792.555664062 834.072265625 796.294921875 806.653320312 780.092773438 801.66796875 c 4
772.614257812 841.549804688 m 4
 735.225585938 834.072265625 748.934570312 786.713867188 781.338867188 794.19140625 c 4
 808.7578125 801.66796875 800.033203125 842.796875 772.614257812 841.549804688 c 4
173.14453125 14.0078125 m 6
 171.897460938 14.0078125 l 5
 133.262695312 4.0361328125 146.971679688 -44.568359375 181.869140625 -34.5986328125 c 4
 209.286132812 -27.12109375 200.563476562 15.25390625 173.14453125 14.0078125 c 6
173.14453125 6.529296875 m 5
 191.838867188 6.529296875 196.82421875 -23.3818359375 179.375976562 -28.3671875 c 4
 154.450195312 -35.8447265625 144.479492188 -2.1953125 173.14453125 6.529296875 c 5
264.124023438 66.3515625 m 4
 286.557617188 109.971679688 313.9765625 151.099609375 333.916015625 197.212890625 c 4
 392.4921875 313.120117188 408.6953125 442.733398438 411.1875 569.856445312 c 4xff78
 413.6796875 688.254882812 409.94140625 810.392578125 407.44921875 926.297851562 c 5xffb8
 675.403320312 926.297851562 l 5
 675.403320312 637.157226562 676.6484375 348.015625 675.403320312 60.1201171875 c 4
 672.91015625 37.6865234375 646.73828125 27.7158203125 624.3046875 31.455078125 c 4
 509.645507812 32.7021484375 394.986328125 28.962890625 281.572265625 31.455078125 c 4
 264.124023438 31.455078125 257.892578125 51.396484375 264.124023438 66.3515625 c 4
682.879882812 933.776367188 m 5
 399.970703125 933.776367188 l 5
 399.970703125 930.037109375 l 6xffb8
 402.462890625 810.392578125 406.202148438 690.749023438 403.709960938 571.102539062 c 4
 401.217773438 443.981445312 385.014648438 314.365234375 327.685546875 199.705078125 c 4
 307.745117188 154.838867188 279.080078125 113.7109375 256.647460938 68.84375 c 4
 247.922851562 50.150390625 257.892578125 25.2236328125 281.572265625 25.2236328125 c 4
 394.986328125 22.73046875 510.891601562 25.2236328125 624.3046875 23.9775390625 c 4
 647.984375 20.23828125 679.141601562 30.208984375 682.879882812 60.1201171875 c 4
 684.127929688 349.26171875 682.879882812 640.896484375 682.879882812 930.037109375 c 6
 682.879882812 933.776367188 l 5
EndSplineSet
Validated: 524325
EndChar

StartChar: afii10022
Encoding: 1045 1045 17
Width: 1024
VWidth: 0
Flags: HMW
HStem: -144 5<162 623 162 623> -73 5<215 498 215 498 497 498> 266 5<215 397 210 397> 343 6<215 353 215 353 215 353> 610 5 676 5<556 556>
VStem: 93 5<-52 577 -52 578> 210 5<-68 266 -68 271 349 610> 431 5<213 224 213 224 213 225> 490 7<268 268 269 269> 659 5<535 535>
LayerCount: 2
Fore
SplineSet
924.439453125 165.775390625 m 0
 888.142578125 156.365234375 886.798828125 113.34765625 867.978515625 94.5283203125 c 2
 866.634765625 93.1826171875 l 1
 831.682617188 46.1318359375 772.533203125 21.9345703125 714.727539062 27.3125 c 1
 334.288085938 27.3125 l 1
 334.288085938 476.311523438 l 1
 578.951171875 476.311523438 l 2
 608.526367188 477.655273438 630.036132812 448.081054688 624.658203125 421.1953125 c 1
 624.658203125 419.849609375 l 2
 624.658203125 382.209960938 674.3984375 360.702148438 699.939453125 390.275390625 c 0
 722.79296875 415.817382812 710.694335938 452.11328125 713.3828125 479 c 0
 712.0390625 535.4609375 714.727539062 593.265625 712.0390625 651.072265625 c 0
 705.318359375 688.711914062 650.202148438 699.466796875 631.380859375 665.859375 c 0
 615.248046875 641.66015625 631.380859375 613.430664062 609.87109375 598.64453125 c 0
 585.673828125 579.823242188 552.065429688 591.922851562 519.803710938 587.888671875 c 2
 334.288085938 587.888671875 l 1
 334.288085938 938.75390625 l 1
 461.998046875 938.75390625 591.05078125 940.098632812 718.759765625 937.409179688 c 1
 780.598632812 930.6875 835.715820312 887.670898438 859.912109375 829.864257812 c 0
 876.043945312 802.978515625 932.505859375 797.6015625 937.881835938 836.584960938 c 1
 937.881835938 837.930664062 l 2
 936.5390625 870.193359375 916.373046875 895.735351562 906.963867188 922.622070312 c 0
 890.831054688 956.229492188 878.733398438 992.526367188 859.912109375 1026.13476562 c 1
 859.912109375 1027.47851562 l 1
 858.569335938 1027.47851562 l 1
 838.404296875 1042.26660156 812.862304688 1031.51171875 794.041015625 1034.19921875 c 2
 792.696289062 1034.19921875 l 2
 569.541992188 1034.19921875 345.041992188 1035.54492188 121.885742188 1034.19921875 c 2
 120.541992188 1034.19921875 l 1
 76.1796875 1026.13476562 78.869140625 949.5078125 124.575195312 945.475585938 c 2
 125.919921875 945.475585938 l 1
 152.806640625 950.852539062 174.314453125 922.622070312 170.282226562 895.735351562 c 2
 170.282226562 894.392578125 l 2
 170.282226562 612.086914062 171.626953125 331.126953125 170.282226562 48.8212890625 c 0
 168.936523438 25.966796875 146.084960938 5.802734375 123.231445312 11.1796875 c 1
 80.212890625 7.1474609375 74.8349609375 -60.0673828125 115.165039062 -73.5107421875 c 1
 163.560546875 -77.544921875 214.643554688 -74.85546875 263.038085938 -76.19921875 c 0
 470.0625 -76.19921875 675.743164062 -76.19921875 881.421875 -74.85546875 c 2
 882.766601562 -74.85546875 l 1
 906.963867188 -65.4453125 908.307617188 -33.181640625 917.717773438 -18.39453125 c 0
 935.193359375 28.65625 956.704101562 74.36328125 972.834960938 122.756835938 c 0
 982.245117188 152.333007812 951.326171875 176.530273438 924.439453125 165.775390625 c 0
578.951171875 483.033203125 m 2
 327.56640625 483.033203125 l 1
 327.56640625 20.5908203125 l 1
 714.727539062 20.5908203125 l 2
 693.217773438 21.9345703125 691.873046875 21.9345703125 713.3828125 20.5908203125 c 0
 773.875976562 15.212890625 837.05859375 40.7548828125 873.356445312 89.1494140625 c 1
 859.912109375 73.0185546875 858.569335938 74.36328125 873.356445312 89.1494140625 c 1
 897.553710938 113.34765625 896.209960938 150.987304688 927.127929688 159.0546875 c 0
 948.63671875 167.120117188 974.178710938 148.30078125 966.114257812 125.446289062 c 0
 949.981445312 78.3955078125 929.818359375 34.0341796875 910.997070312 -14.3623046875 c 0
 900.243164062 -33.181640625 900.243164062 -60.0673828125 881.421875 -68.1337890625 c 1
 677.086914062 -69.478515625 468.71875 -68.1337890625 263.038085938 -68.1337890625 c 0
 213.30078125 -66.7900390625 166.249023438 -70.8232421875 116.508789062 -66.7900390625 c 1
 85.5908203125 -56.0361328125 88.2783203125 -2.2626953125 123.231445312 3.11328125 c 1
 152.806640625 -2.2626953125 175.659179688 19.24609375 177.002929688 48.8212890625 c 0
 178.34765625 331.126953125 177.002929688 612.086914062 177.002929688 894.392578125 c 1
 175.659179688 872.8828125 174.314453125 872.8828125 177.002929688 894.392578125 c 1
 181.036132812 923.965820312 159.52734375 958.919921875 124.575195312 953.541015625 c 1
 89.623046875 957.57421875 84.24609375 1018.06835938 121.885742188 1026.13476562 c 1
 345.041992188 1027.47851562 569.541992188 1027.47851562 792.696289062 1027.47851562 c 1
 771.188476562 1028.82324219 771.188476562 1030.16699219 792.696289062 1027.47851562 c 1
 815.55078125 1023.4453125 837.05859375 1032.85644531 853.19140625 1022.1015625 c 1
 870.666992188 991.181640625 884.110351562 952.197265625 900.243164062 918.58984375 c 1
 892.176757812 938.75390625 893.520507812 940.098632812 900.243164062 919.93359375 c 0
 909.65234375 890.359375 929.818359375 867.505859375 931.16015625 837.930664062 c 1
 925.78515625 808.356445312 881.421875 809.69921875 866.634765625 832.553710938 c 0
 842.4375 891.704101562 785.975585938 937.409179688 720.103515625 944.130859375 c 1
 718.759765625 944.130859375 l 2
 589.70703125 946.8203125 459.30859375 944.130859375 330.25390625 945.475585938 c 2
 327.56640625 945.475585938 l 1
 327.56640625 579.823242188 l 1
 519.803710938 579.823242188 l 2
 549.37890625 582.51171875 584.329101562 570.4140625 613.904296875 591.922851562 c 0
 639.4453125 609.3984375 626.001953125 644.349609375 638.1015625 661.826171875 c 0
 652.888671875 688.711914062 698.595703125 679.302734375 703.973632812 649.727539062 c 1
 701.28515625 671.236328125 702.627929688 672.581054688 703.973632812 651.072265625 c 0
 706.66015625 594.610351562 702.627929688 536.805664062 703.973632812 479 c 1
 705.318359375 500.5078125 706.66015625 501.853515625 703.973632812 480.344726562 c 0
 699.939453125 449.424804688 713.3828125 417.163085938 694.5625 395.65234375 c 0
 674.3984375 372.798828125 631.380859375 390.275390625 631.380859375 419.849609375 c 0
 636.756835938 450.770507812 612.559570312 484.37890625 578.951171875 483.033203125 c 2
275.137695312 849.505859375 m 4
 267.072265625 885.801757812 214.643554688 871.014648438 226.743164062 840.096679688 c 5
 220.021484375 860.260742188 218.676757812 860.260742188 225.3984375 840.096679688 c 4
 233.46484375 813.209960938 276.482421875 822.619140625 275.137695312 849.505859375 c 4
267.072265625 848.16015625 m 4
 267.072265625 829.340820312 238.841796875 825.307617188 233.46484375 842.78515625 c 4
 225.3984375 862.948242188 260.350585938 873.704101562 267.072265625 848.16015625 c 4
273.79296875 79.740234375 m 0
 267.072265625 117.380859375 215.987304688 102.59375 225.3984375 70.3291015625 c 0
 233.46484375 43.443359375 275.137695312 52.8525390625 273.79296875 79.740234375 c 0
267.072265625 78.3955078125 m 0
 268.416992188 59.5751953125 237.497070312 55.5419921875 232.119140625 73.0185546875 c 0
 225.3984375 95.8720703125 261.6953125 107.970703125 267.072265625 78.3955078125 c 0
EndSplineSet
EndChar

StartChar: afii10024
Encoding: 1046 1046 18
Width: 1269
VWidth: 0
Flags: HMW
HStem: -171 4<210 212 635 659.5> -122 4<514 529 516 529> 416 4<542 542> 457 4
VStem: 320 4<251 251> 411 4 413 4<279 279> 502 5<89 127 88 128 88 129> 634 5<-171 -81>
LayerCount: 2
Fore
SplineSet
407.24609375 242.607421875 m 1xfb80
 442.32421875 312.759765625 477.401367188 382.915039062 512.477539062 451.314453125 c 1
 535.278320312 382.915039062 554.5703125 119.83984375 549.307617188 37.4072265625 c 1xfd80
 535.278320312 4.0849609375 452.846679688 16.361328125 472.137695312 -46.7763671875 c 1
 472.137695312 -48.529296875 l 1
 503.708007812 -101.145507812 580.876953125 -67.822265625 626.478515625 -76.5927734375 c 1
 628.233398438 -76.5927734375 l 2
 677.338867188 -73.0849609375 731.708984375 -83.607421875 780.815429688 -69.576171875 c 1
 782.568359375 -69.576171875 l 1
 826.416015625 -29.2373046875 777.306640625 16.361328125 735.215820312 16.361328125 c 1
 696.630859375 156.670898438 717.674804688 309.251953125 717.674804688 446.055664062 c 1
 759.76953125 498.668945312 779.061523438 395.194335938 805.368164062 356.606445312 c 2
 805.368164062 356.606445312 931.64453125 100.546875 940.416015625 79.5 c 1
 940.416015625 35.654296875 847.461914062 -57.30078125 940.416015625 -76.5927734375 c 1
 1029.86132812 -76.5927734375 1119.30761719 -76.5927734375 1208.75390625 -74.8388671875 c 1
 1275.39941406 -46.7763671875 1240.32324219 30.3916015625 1184.20019531 40.9140625 c 1
 1140.35546875 88.2685546875 1122.81445312 154.916015625 1089.49121094 212.790039062 c 0
 1019.33691406 356.606445312 947.430664062 502.176757812 877.278320312 645.993164062 c 1
 891.30859375 693.345703125 945.676757812 716.146484375 977.24609375 756.484375 c 0
 1015.82910156 795.069335938 1050.90625 830.146484375 1089.49121094 865.22265625 c 1
 1152.63183594 819.623046875 1252.59863281 872.239257812 1240.32324219 951.162109375 c 0
 1233.30664062 1026.57617188 1128.07714844 1063.40527344 1078.96972656 1003.77636719 c 1
 963.21484375 896.791992188 849.213867188 788.0546875 731.708984375 682.82421875 c 1
 696.630859375 707.375 728.200195312 791.561523438 715.923828125 840.668945312 c 0
 708.90625 891.530273438 715.923828125 958.176757812 779.061523438 952.915039062 c 2
 780.815429688 952.915039062 l 1
 782.568359375 954.669921875 l 2
 838.692382812 1009.03808594 754.508789062 1049.37597656 707.154296875 1033.59277344 c 1
 635.24609375 1031.83886719 565.09375 1038.85449219 494.938476562 1031.83886719 c 1
 493.184570312 1031.83886719 l 1
 493.184570312 1030.08496094 l 1
 438.817382812 995.009765625 489.67578125 938.884765625 535.278320312 940.639648438 c 1
 573.861328125 877.500976562 542.291015625 789.807617188 552.81640625 712.63671875 c 1
 551.0625 640.73046875 491.431640625 733.684570312 458.108398438 754.73046875 c 1
 359.891601562 845.931640625 265.18359375 935.376953125 166.96875 1024.82226562 c 1
 165.21484375 1024.82226562 l 1
 96.8154296875 1063.40527344 3.86328125 987.991210938 33.6767578125 912.576171875 c 1
 54.72265625 837.16015625 142.4140625 847.684570312 188.017578125 856.453125 c 1
 256.415039062 791.561523438 323.059570312 728.422851562 389.709960938 663.530273438 c 1
 387.954101562 607.407226562 342.35546875 560.055664062 323.059570312 505.685546875 c 0
 249.401367188 356.606445312 177.4921875 205.778320312 103.829101562 58.4541015625 c 1
 68.7548828125 28.6376953125 -17.1845703125 -11.7001953125 49.4609375 -67.822265625 c 1
 49.4609375 -69.576171875 l 1
 96.8154296875 -87.1142578125 147.67578125 -71.330078125 196.784179688 -76.5927734375 c 2
 200.29296875 -76.5927734375 l 2
 249.401367188 -73.0849609375 303.768554688 -83.607421875 352.875 -71.330078125 c 1
 354.630859375 -71.330078125 l 1
 354.630859375 -69.576171875 l 1
 400.23046875 -22.2236328125 337.092773438 28.6376953125 328.323242188 67.22265625 c 1
 335.336914062 132.116210938 384.446289062 181.22265625 407.24609375 242.607421875 c 1xfb80
710.662109375 449.559570312 m 1
 708.90625 449.559570312 l 1
 708.90625 447.807617188 l 2
 708.90625 311.0078125 691.369140625 154.916015625 729.955078125 12.853515625 c 1
 729.955078125 9.3466796875 l 1
 733.4609375 9.3466796875 l 2
 773.799804688 12.853515625 817.645507812 -29.2373046875 779.061523438 -62.5595703125 c 1
 733.4609375 -74.8388671875 680.845703125 -66.0673828125 628.233398438 -69.576171875 c 1
 577.369140625 -59.0546875 507.21484375 -90.623046875 479.153320312 -45.021484375 c 1
 461.6171875 14.607421875 538.784179688 -15.2080078125 556.325195312 33.900390625 c 1xfd80
 561.584960938 123.344726562 542.291015625 405.71484375 515.985351562 461.837890625 c 2
 512.477539062 468.856445312 l 1
 508.969726562 461.837890625 l 2
 470.383789062 389.931640625 438.817382812 316.26953125 400.23046875 244.36328125 c 1
 377.4296875 184.732421875 328.323242188 133.869140625 321.307617188 67.22265625 c 1
 321.307617188 65.4697265625 l 1
 330.077148438 18.1162109375 391.461914062 -20.4697265625 351.124023438 -64.3134765625 c 1
 307.27734375 -74.8388671875 247.646484375 -66.0673828125 196.784179688 -69.576171875 c 1
 217.831054688 -69.576171875 221.337890625 -71.330078125 200.29296875 -69.576171875 c 0
 149.430664062 -64.3134765625 96.8154296875 -78.3466796875 51.21484375 -62.5595703125 c 1
 -4.90625 -11.7001953125 68.7548828125 21.623046875 109.091796875 54.9453125 c 1
 110.846679688 54.9453125 l 1
 184.508789062 204.0234375 256.415039062 354.853515625 330.077148438 503.930664062 c 1
 347.614257812 556.547851562 396.721679688 605.65234375 396.721679688 663.530273438 c 2
 396.721679688 665.28515625 l 1
 396.721679688 667.040039062 l 1
 330.077148438 733.684570312 259.922851562 798.577148438 191.521484375 863.469726562 c 2
 189.768554688 865.22265625 l 1
 188.017578125 865.22265625 l 1
 140.663085938 856.453125 59.982421875 845.931640625 40.6923828125 914.330078125 c 0
 14.384765625 982.73046875 98.56640625 1051.13085938 161.708984375 1017.80957031 c 1
 259.922851562 930.115234375 358.13671875 838.915039062 454.599609375 749.469726562 c 0
 477.401367188 735.438476562 558.076171875 624.946289062 559.830078125 712.63671875 c 1xfb80
 551.0625 786.299804688 584.384765625 877.500976562 540.5390625 945.901367188 c 1
 538.784179688 949.407226562 l 1
 537.029296875 947.653320312 l 1
 494.938476562 942.392578125 454.599609375 995.009765625 498.444335938 1024.82226562 c 1
 566.845703125 1030.08496094 638.75390625 1024.82226562 708.90625 1026.57617188 c 1
 754.508789062 1042.36328125 821.153320312 1005.52929688 777.306640625 959.931640625 c 1
 707.154296875 963.4375 701.893554688 889.776367188 708.90625 838.915039062 c 0
 721.18359375 795.069335938 684.353515625 703.869140625 729.955078125 675.806640625 c 1
 731.708984375 674.053710938 l 1
 733.4609375 675.806640625 l 1
 850.969726562 782.791992188 968.477539062 889.776367188 1084.23046875 998.516601562 c 1
 1084.23046875 1000.26660156 l 1
 1085.98242188 1000.26660156 l 1
 1131.5859375 1054.63769531 1228.046875 1019.56054688 1233.30664062 951.162109375 c 2
 1233.30664062 949.407226562 l 1
 1243.83007812 877.500976562 1149.12402344 826.637695312 1092.99902344 872.239257812 c 1
 1089.49121094 873.991210938 l 1
 1087.74023438 872.239257812 l 2
 1049.15234375 833.655273438 1010.56835938 800.329101562 971.983398438 761.747070312 c 0
 942.168945312 723.161132812 882.538085938 698.606445312 870.260742188 647.748046875 c 1
 870.260742188 645.993164062 l 1
 870.260742188 644.240234375 l 1
 940.416015625 498.668945312 1010.56835938 353.098632812 1082.47851562 209.287109375 c 0
 1115.79980469 153.161132812 1133.33691406 86.5146484375 1178.93847656 37.4072265625 c 1
 1178.93847656 33.900390625 l 1
 1180.69042969 33.900390625 l 1
 1233.30664062 26.884765625 1263.12402344 -43.267578125 1207 -67.822265625 c 1
 1119.30761719 -69.576171875 1031.61425781 -69.576171875 942.168945312 -69.576171875 c 1
 857.983398438 -50.28515625 950.940429688 23.3779296875 949.18359375 81.2529296875 c 1
 947.430664062 83.009765625 l 1
 907.091796875 177.713867188 857.983398438 267.163085938 812.3828125 360.115234375 c 0
 793.090820312 386.422851562 761.522460938 514.453125 710.662109375 449.559570312 c 1
608.938476562 864.73046875 m 4
 615.953125 836.668945312 665.061523438 850.700195312 656.291015625 882.26953125 c 5
 656.291015625 884.021484375 l 5
 644.016601562 910.330078125 600.170898438 892.791992188 608.938476562 864.73046875 c 4
615.953125 868.239257812 m 4
 610.690429688 887.530273438 640.508789062 896.299804688 649.276367188 880.514648438 c 4
 654.538085938 855.959960938 621.21484375 850.700195312 615.953125 868.239257812 c 4
637 63.71484375 m 0
 666.81640625 67.22265625 658.046875 116.331054688 628.233398438 112.82421875 c 0
 598.415039062 107.561523438 607.18359375 58.4541015625 637 63.71484375 c 0
628.233398438 105.806640625 m 0
 649.276367188 109.315429688 654.538085938 72.4853515625 635.24609375 70.73046875 c 0
 614.200195312 67.22265625 607.18359375 102.30078125 628.233398438 105.806640625 c 0
EndSplineSet
EndChar

StartChar: afii10025
Encoding: 1047 1047 19
Width: 958
VWidth: 0
Flags: HMWO
HStem: 67.55 5.5<299.3 385.65 299.3 386.2>
VStem: 35.3 5.5<180.85 190.2 172.6 192.95>
LayerCount: 2
Fore
SplineSet
565.4765625 446.450195312 m 0
 634.510742188 403.854492188 712.358398438 359.7890625 741.734375 281.94140625 c 0
 760.831054688 230.53125 752.017578125 171.77734375 716.765625 129.181640625 c 0
 655.072265625 51.33203125 549.317382812 24.8955078125 453.84375 24.8955078125 c 0
 318.709960938 24.8955078125 179.168945312 79.2412109375 96.9130859375 189.404296875 c 0
 77.8212890625 212.905273438 33.75390625 201.154296875 33.75390625 168.83984375 c 0
 36.6904296875 146.807617188 61.6630859375 135.05859375 71.9443359375 121.837890625 c 1
 73.4130859375 121.837890625 l 1
 185.045898438 16.08203125 330.458984375 -61.767578125 486.15625 -73.5185546875 c 0
 615.415039062 -83.798828125 753.483398438 -48.548828125 846.021484375 46.9248046875 c 0
 903.309570312 105.6796875 932.684570312 195.280273438 906.245117188 274.596679688 c 0
 878.336914062 364.197265625 804.896484375 430.293945312 729.985351562 477.296875 c 0
 713.826171875 491.984375 690.326171875 490.515625 707.953125 499.330078125 c 1
 709.419921875 499.330078125 l 1
 771.111328125 549.267578125 823.990234375 612.4296875 848.959960938 688.80859375 c 0
 873.930664062 768.126953125 856.3046875 857.7265625 803.426757812 920.88671875 c 0
 728.515625 1011.953125 602.1953125 1048.67480469 489.095703125 1032.51855469 c 0
 358.368164062 1014.89160156 242.329101562 938.512695312 151.26171875 845.977539062 c 1
 146.856445312 863.6015625 145.387695312 890.041015625 118.948242188 892.978515625 c 0
 96.9130859375 895.916015625 58.7255859375 892.978515625 49.9130859375 865.071289062 c 1
 77.8212890625 643.275390625 l 1
 79.291015625 643.275390625 l 1
 104.2578125 616.834960938 143.916992188 635.932617188 161.543945312 656.493164062 c 1
 212.954101562 766.657226562 299.615234375 869.477539062 420.059570312 903.258789062 c 0
 474.407226562 917.947265625 534.629882812 926.762695312 584.569335938 900.323242188 c 1
 586.0390625 900.323242188 l 1
 652.135742188 872.4140625 696.202148438 800.44140625 687.387695312 728.46875 c 0
 677.10546875 635.932617188 612.478515625 559.552734375 543.44140625 499.330078125 c 0
 521.409179688 477.296875 549.317382812 453.794921875 565.4765625 446.450195312 c 0
841.6171875 690.27734375 m 0
 818.114257812 615.368164062 766.706054688 555.145507812 705.015625 505.205078125 c 1
 675.637695312 490.515625 719.703125 475.828125 724.107421875 471.422851562 c 2
 725.577148438 471.422851562 l 1
 800.489257812 424.419921875 872.462890625 358.321289062 898.901367188 271.658203125 c 0
 925.338867188 195.280273438 897.431640625 108.6171875 841.6171875 51.33203125 c 0
 750.547851562 -41.2041015625 613.947265625 -76.455078125 486.15625 -66.173828125 c 0
 331.928710938 -54.421875 189.452148438 21.9560546875 77.8212890625 126.243164062 c 1
 92.5078125 110.0859375 91.0400390625 108.6171875 77.8212890625 126.243164062 c 1
 64.6005859375 142.400390625 44.0361328125 151.215820312 41.0986328125 168.83984375 c 1
 42.568359375 148.278320312 41.0986328125 146.807617188 41.0986328125 168.83984375 c 1
 41.0986328125 193.811523438 74.8828125 204.092773438 91.0400390625 184.997070312 c 1
 77.8212890625 201.154296875 77.8212890625 202.624023438 91.0400390625 184.997070312 c 1
 174.76171875 73.365234375 317.240234375 17.5498046875 453.84375 17.5498046875 c 0
 550.786132812 17.5498046875 659.481445312 45.45703125 722.638671875 124.774414062 c 0
 759.361328125 168.83984375 768.174804688 230.53125 749.08203125 283.41015625 c 0
 716.765625 364.197265625 638.916992188 411.197265625 569.879882812 452.326171875 c 0
 552.254882812 459.669921875 533.159179688 480.233398438 547.84765625 494.922851562 c 0
 616.8828125 555.145507812 684.44921875 630.055664062 694.73046875 727 c 0
 705.015625 803.37890625 656.541992188 878.290039062 587.504882812 907.66796875 c 1
 606.6015625 898.853515625 608.071289062 897.385742188 588.974609375 907.66796875 c 0
 536.09765625 935.57421875 472.938476562 925.29296875 418.590820312 910.603515625 c 0
 295.20703125 875.3515625 207.075195312 774.002929688 155.666992188 660.900390625 c 1
 138.041992188 641.806640625 105.727539062 627.1171875 85.162109375 647.682617188 c 1
 57.255859375 863.6015625 l 1
 64.6005859375 884.1640625 93.978515625 888.571289062 117.478515625 885.634765625 c 0
 139.510742188 884.1640625 139.510742188 857.7265625 146.856445312 837.162109375 c 2
 148.32421875 831.287109375 l 1
 152.732421875 835.693359375 l 2
 243.797851562 928.228515625 358.368164062 1006.078125 489.095703125 1023.70410156 c 0
 600.725585938 1039.86230469 724.107421875 1006.078125 797.55078125 916.478515625 c 0
 848.959960938 854.786132812 866.586914062 766.657226562 841.6171875 690.27734375 c 0
815.176757812 92.4609375 m 0
 843.086914062 102.7421875 823.990234375 151.215820312 791.67578125 133.588867188 c 1
 791.67578125 132.120117188 l 1
 769.64453125 115.963867188 790.205078125 82.1796875 815.176757812 92.4609375 c 0
796.083007812 126.243164062 m 0
 816.646484375 137.993164062 828.397460938 104.212890625 812.239257812 98.3369140625 c 0
 796.083007812 90.9921875 781.39453125 115.963867188 796.083007812 126.243164062 c 0
100.609375 796.66796875 m 4
 77.10546875 780.5078125 107.953125 736.443359375 132.924804688 759.947265625 c 5
 132.924804688 761.4140625 l 5
 134.392578125 761.4140625 l 5
 152.017578125 781.978515625 122.638671875 812.825195312 100.609375 796.66796875 c 4
128.515625 765.8203125 m 4
 110.889648438 749.663085938 90.326171875 779.041015625 105.015625 789.323242188 c 4
 119.703125 799.603515625 140.266601562 779.041015625 128.515625 765.8203125 c 4
EndSplineSet
EndChar

StartChar: afii10026
Encoding: 1048 1048 20
Width: 1024
VWidth: 0
Flags: HMW
HStem: -126 4 -21 20G<191 191> 637 4
VStem: 144 6<-39 60 -39 556> 252 6 495 5<-41 376> 604 5<-41 554>
LayerCount: 2
Fore
SplineSet
873.724609375 46.8369140625 m 4
 872.275390625 333.831054688 873.724609375 622.271484375 873.724609375 909.265625 c 4
 873.724609375 932.456054688 895.465820312 954.19921875 918.658203125 949.850585938 c 5
 962.141601562 952.749023438 969.387695312 1019.42285156 930.252929688 1033.91796875 c 5
 894.016601562 1039.71582031 857.780273438 1035.36621094 822.993164062 1036.81640625 c 6
 821.54296875 1036.81640625 l 6
 766.46484375 1035.36621094 711.3828125 1038.265625 656.3046875 1035.36621094 c 6
 654.856445312 1035.36621094 l 5
 614.271484375 1023.77148438 617.169921875 957.096679688 659.204101562 949.850585938 c 5
 660.653320312 949.850585938 l 6
 680.9453125 952.749023438 701.239257812 942.602539062 705.587890625 922.310546875 c 4
 709.935546875 903.466796875 708.486328125 881.725585938 707.036132812 864.33203125 c 5
 364.963867188 307.739257812 l 5
 364.963867188 510.6640625 363.513671875 710.689453125 364.963867188 912.163085938 c 4
 366.412109375 935.35546875 388.155273438 954.19921875 411.346679688 949.850585938 c 5
 454.830078125 954.19921875 460.62890625 1022.32226562 420.043945312 1035.36621094 c 5
 418.59375 1035.36621094 l 6
 370.760742188 1039.71582031 322.9296875 1035.36621094 276.545898438 1036.81640625 c 4
 233.061523438 1035.36621094 188.12890625 1039.71582031 144.646484375 1035.36621094 c 5
 104.061523438 1022.32226562 108.409179688 954.19921875 151.892578125 949.850585938 c 6
 153.341796875 949.850585938 l 6
 176.534179688 954.19921875 198.275390625 935.35546875 199.724609375 912.163085938 c 4
 201.174804688 625.168945312 199.724609375 336.729492188 199.724609375 49.734375 c 4
 199.724609375 26.5439453125 177.983398438 4.8017578125 154.79296875 9.1494140625 c 6
 153.341796875 9.1494140625 l 6
 109.858398438 6.2509765625 102.612304688 -60.4228515625 141.747070312 -74.91796875 c 5
 143.197265625 -74.91796875 l 5
 179.434570312 -80.7158203125 215.669921875 -76.3662109375 250.45703125 -77.81640625 c 4
 305.53515625 -76.3662109375 362.064453125 -79.265625 417.143554688 -76.3662109375 c 5
 457.728515625 -64.771484375 456.280273438 1.9033203125 414.244140625 9.1494140625 c 5
 412.795898438 9.1494140625 l 6
 392.502929688 6.2509765625 372.211914062 16.3984375 367.86328125 36.6904296875 c 4
 363.513671875 55.533203125 363.513671875 77.2744140625 364.963867188 94.6689453125 c 5
 708.486328125 651.260742188 l 5
 708.486328125 448.3359375 709.935546875 248.310546875 708.486328125 46.8369140625 c 4
 707.036132812 23.64453125 685.293945312 4.8017578125 662.104492188 9.1494140625 c 6
 660.653320312 9.1494140625 l 6
 617.169921875 4.8017578125 612.821289062 -63.322265625 653.40625 -76.3662109375 c 5
 654.856445312 -76.3662109375 l 6
 702.688476562 -80.7158203125 750.520507812 -76.3662109375 796.90234375 -77.81640625 c 4
 840.38671875 -76.3662109375 885.319335938 -80.7158203125 928.802734375 -76.3662109375 c 5
 969.387695312 -63.322265625 965.038085938 4.8017578125 921.5546875 9.1494140625 c 6
 920.107421875 9.1494140625 l 6
 896.915039062 4.8017578125 875.174804688 23.64453125 873.724609375 46.8369140625 c 4
356.266601562 294.693359375 m 6
 356.266601562 281.6484375 l 5
 714.283203125 861.43359375 l 5
 714.283203125 862.8828125 l 6
 717.182617188 881.725585938 717.182617188 903.466796875 712.833984375 923.759765625 c 4
 707.036132812 948.399414062 683.844726562 959.99609375 659.204101562 957.096679688 c 5
 627.315429688 962.893554688 621.517578125 1017.97363281 656.3046875 1028.11914062 c 5
 709.935546875 1031.01953125 767.913085938 1028.11914062 822.993164062 1029.5703125 c 5
 801.25 1029.5703125 799.802734375 1031.01953125 821.54296875 1029.5703125 c 4
 857.780273438 1028.11914062 892.565429688 1032.46777344 928.802734375 1026.67089844 c 5
 960.690429688 1015.07617188 954.893554688 959.99609375 918.658203125 957.096679688 c 5
 889.668945312 961.4453125 866.4765625 936.8046875 866.4765625 909.265625 c 4
 866.4765625 622.271484375 865.02734375 333.831054688 866.4765625 46.8369140625 c 4
 867.926757812 19.2978515625 892.565429688 -2.4453125 921.5546875 1.9033203125 c 5
 953.443359375 -2.4453125 960.690429688 -57.5234375 927.353515625 -69.119140625 c 5
 885.319335938 -73.4677734375 840.38671875 -69.119140625 796.90234375 -70.5703125 c 4
 749.0703125 -69.119140625 702.688476562 -73.4677734375 654.856445312 -69.119140625 c 5
 622.966796875 -58.9736328125 627.315429688 -2.4453125 662.104492188 1.9033203125 c 5
 689.642578125 -2.4453125 714.283203125 19.2978515625 715.733398438 46.8369140625 c 4
 717.182617188 252.659179688 715.733398438 458.482421875 715.733398438 664.306640625 c 6
 715.733398438 677.3515625 l 5
 357.716796875 97.56640625 l 5
 357.716796875 96.1171875 l 6
 354.817382812 77.2744140625 356.266601562 55.533203125 360.6171875 35.240234375 c 4
 366.412109375 10.6005859375 388.155273438 -0.99609375 412.795898438 1.9033203125 c 5
 444.684570312 -3.8935546875 450.482421875 -58.9736328125 415.6953125 -69.119140625 c 5
 362.064453125 -72.017578125 305.53515625 -69.119140625 250.45703125 -70.5703125 c 5
 272.197265625 -70.5703125 272.197265625 -72.017578125 250.45703125 -70.5703125 c 5
 214.219726562 -69.119140625 180.881835938 -73.4677734375 144.646484375 -67.6708984375 c 5
 112.7578125 -56.07421875 117.106445312 -0.99609375 153.341796875 1.9033203125 c 5
 182.331054688 -2.4453125 208.421875 22.1953125 208.421875 49.734375 c 4
 208.421875 336.729492188 209.872070312 625.168945312 208.421875 912.163085938 c 4
 206.97265625 939.704101562 180.881835938 961.4453125 151.892578125 957.096679688 c 5
 120.00390625 961.4453125 111.309570312 1016.5234375 144.646484375 1028.11914062 c 5
 186.680664062 1032.46777344 233.061523438 1028.11914062 276.545898438 1029.5703125 c 4
 324.379882812 1028.11914062 370.760742188 1032.46777344 418.59375 1028.11914062 c 5
 450.482421875 1017.97363281 446.133789062 961.4453125 411.346679688 957.096679688 c 5
 383.806640625 961.4453125 359.166015625 939.704101562 357.716796875 912.163085938 c 4
 356.266601562 706.340820312 356.266601562 500.517578125 356.266601562 294.693359375 c 6
286.693359375 65.6787109375 m 4
 315.682617188 74.3759765625 296.838867188 123.659179688 264.951171875 110.612304688 c 4
 240.30859375 96.1171875 260.602539062 55.533203125 286.693359375 65.6787109375 c 4
283.794921875 72.927734375 m 4
 266.401367188 65.6787109375 251.90625 94.6689453125 267.8515625 104.81640625 c 5
 267.8515625 104.81640625 318.581054688 84.5224609375 283.794921875 72.927734375 c 4
769.362304688 881.725585938 m 4
 776.609375 844.0390625 827.341796875 858.533203125 818.643554688 890.420898438 c 4
 809.948242188 916.512695312 767.913085938 909.265625 769.362304688 881.725585938 c 4
776.609375 883.173828125 m 4
 776.609375 902.018554688 805.598632812 906.3671875 811.397460938 888.97265625 c 4
 817.194335938 867.23046875 782.408203125 855.633789062 776.609375 883.173828125 c 4
EndSplineSet
Validated: 524325
EndChar

StartChar: afii10029
Encoding: 1051 1051 21
Width: 1024
VWidth: 0
Flags: MW
HStem: -102 5<672 684.5 672 687.5> -2 21G<199 200 199 199> 589 6<315 527 527 527> 614 6<221 221 222 222 674 674 675 675> 671 5<217 673>
VStem: 251 5<101 101> 310 5<259 589 259 595 259 589> 527 7<-15 595> 637 5<588 588>
LayerCount: 2
Fore
SplineSet
642 588 m 0
 643 604 658 617 674 614 c 2
 675 614 l 1
 707 619 706 674 673 677 c 0
 521 677 370 677 218 676 c 2
 217 676 l 1
 185 670 188 615 221 614 c 2
 222 614 l 1
 242 618 255 596 252 577 c 0
 252 418 252 259 251 101 c 0
 249 61 239 15 200 -2 c 1
 199 -2 l 1
 187 -11 196 5 188 17 c 0
 170 63 108 82 68 54 c 0
 26 29 18 -35 52 -70 c 0
 80 -99 125 -104 162 -101 c 0
 243 -92 307 -20 314 59 c 0
 317 126 314 192 315 259 c 2
 315 589 l 1
 527 589 l 1
 527 388 528 186 527 -15 c 0
 526 -31 511 -44 495 -41 c 2
 494 -41 l 2
 463 -44 461 -93 490 -101 c 1
 550 -103 612 -101 672 -102 c 0
 703 -102 709 -54 681 -43 c 0
 668 -40 654 -43 648 -31 c 0
 636 -11 644 564 642 588 c 0
534 592 m 2
 534 595 l 1
 310 595 l 1
 310 259 l 2
 309 192 312 125 309 59 c 0
 302 -18 239 -87 161 -95 c 0
 124 -98 82 -94 56 -67 c 0
 24 -34 32 26 71 49 c 1
 71 50 l 1
 109 76 167 58 183 15 c 1
 183 14 l 2
 186 10 185 -19 202 -7 c 1
 244 11 254 61 256 101 c 0
 257 260 257 418 257 577 c 1
 256 562 255 560 257 575 c 0
 260 595 247 624 221 620 c 1
 196 621 192 665 218 671 c 1
 369 672 521 671 673 671 c 0
 699 669 701 624 675 620 c 1
 656 623 638 608 637 588 c 0
 636 405 637 221 637 38 c 2
 637 37 l 2
 639 15 631 -12 644 -34 c 0
 652 -49 669 -45 680 -48 c 1
 666 -44 666 -43 680 -48 c 1
 703 -57 697 -97 672 -97 c 0
 612 -96 551 -98 490 -96 c 1
 468 -89 469 -50 494 -46 c 1
 513 -49 531 -35 532 -15 c 0
 533 187 534 390 534 592 c 2
110 22 m 0
 125 32 134 6 122 0 c 0
 110 -5 99 14 110 22 c 0
125 -5 m 0
 144 5 128 39 106 25 c 0
 90 13 107 -13 125 -5 c 0
572 563 m 0
 571 576 592 581 596 568 c 0
 602 551 575 543 572 563 c 0
567 563 m 0
 571 536 609 544 601 569 c 0
 595 587 566 582 567 563 c 0
EndSplineSet
Validated: 37
EndChar

StartChar: afii10031
Encoding: 1053 1053 22
Width: 1024
VWidth: 0
Flags: MW
HStem: 20 43 352 46<216 492 216 492> 684 47
VStem: 119 97<324 352 398 401 401 607 607 607> 490 35 492 97<349 352 352 352 398 607 607 607>
LayerCount: 2
Fore
SplineSet
486 93 m 2xf0
 487 607 l 1
 487 403 l 1
 221 403 l 1
 221 488 220 573 221 657 c 0
 222 672 237 683 252 680 c 1
 252 680 l 1
 252 680 l 1
 276 676 295 706 279 725 c 0
 265 743 239 734 222 736 c 1
 222 736 l 1
 222 736 l 1
 160 736 l 2
 130 736 99 736 69 735 c 2
 68 735 l 1
 68 735 l 1
 44 730 39 694 62 683 c 0
 79 674 99 686 108 670 c 0
 119 652 112 629 114 607 c 0
 114 436 114 266 113 95 c 0
 112 79 98 66 83 70 c 0
 61 75 40 54 49 32 c 0
 56 12 79 13 94 14 c 0
 150 15 207 13 263 15 c 1
 263 15 l 1
 263 15 l 1
 287 20 291 56 269 67 c 0
 253 76 236 65 227 80 c 0
 216 98 223 121 221 143 c 2
 221 347 l 1
 487 347 l 1
 487 262 487 177 486 93 c 2xf0
487 606 m 2
 486 93 l 2
 485 78 471 67 456 70 c 0
 433 75 413 47 426 27 c 0
 439 5 467 16 484 14 c 1
 484 14 l 1
 484 14 l 1
 535 15 587 13 638 15 c 1
 638 15 l 1
 638 15 l 1
 662 20 667 56 644 67 c 0
 627 76 609 64 600 80 c 0
 589 98 596 121 594 143 c 0
 594 314 593 484 594 655 c 0
 595 671 609 684 625 680 c 0
 648 675 668 701 656 721 c 0
 644 743 616 735 599 736 c 1
 599 736 l 1
 599 736 l 1
 547 735 496 737 444 735 c 2
 443 735 l 1
 443 735 l 1
 418 730 414 692 438 682 c 0
 454 674 472 685 481 670 c 0
 492 652 485 628 487 606 c 2
216 401 m 2
 216 398 l 1
 492 398 l 1
 492 607 l 2
 490 627 497 653 485 673 c 0
 475 691 452 682 440 687 c 0
 421 695 424 726 444 730 c 0
 495 732 547 730 599 731 c 0
 619 729 642 737 652 719 c 0
 662 702 645 680 626 684 c 0
 607 688 590 673 589 655 c 0
 588 484 589 314 589 143 c 0xf4
 591 123 584 97 596 77 c 0
 607 58 630 69 642 63 c 0
 660 54 656 24 637 20 c 0
 587 18 535 20 484 19 c 0
 464 21 441 12 430 30 c 0
 419 46 436 70 455 66 c 0
 473 62 488 75 490 93 c 0xf8
 491 178 492 264 492 349 c 2
 492 352 l 1xf4
 216 352 l 1
 216 143 l 2
 218 123 210 97 222 77 c 0
 232 59 255 69 267 63 c 0
 285 54 281 24 262 20 c 0
 207 18 150 20 94 19 c 0
 78 18 58 18 53 34 c 0
 46 51 64 70 82 66 c 0
 101 62 117 77 118 95 c 0
 118 171 119 248 119 324 c 2
 119 607 l 2
 117 627 124 653 112 673 c 0
 101 692 75 680 63 687 c 0
 45 696 50 726 69 730 c 0
 98 731 127 731 157 731 c 2
 214 731 l 1
 215 731 l 1
 216 731 l 1
 222 731 l 1
 216 731 l 1
 215 732 l 1
 214 732 l 1
 212 732 l 1
 213 732 l 2
 215 732 218 731 222 731 c 0
 242 729 263 738 275 722 c 0
 288 707 272 681 253 684 c 0
 235 688 218 675 216 657 c 0
 215 572 216 486 216 401 c 2
176 630 m 0
 172 654 138 644 144 624 c 0
 149 607 177 612 176 630 c 0
171 630 m 0
 172 618 154 614 150 626 c 0
 146 639 167 647 171 630 c 0
525 118 m 0xf8
 525 93 566 100 557 124 c 1
 561 111 561 110 557 123 c 0
 552 140 524 136 525 118 c 0xf8
530 118 m 0
 529 130 549 134 552 122 c 0
 558 105 530 100 530 118 c 0
EndSplineSet
Validated: 37
EndChar

StartChar: afii10032
Encoding: 1054 1054 23
Width: 1024
VWidth: 0
Flags: MW
HStem: 481 4<361 361> 522 4<411 411>
VStem: 60 3<218 233.5>
LayerCount: 2
Fore
SplineSet
65 195 m 2
 63 218 l 2
 63 249 67 280 77 309 c 0
 93 365 126 415 170 452 c 0
 201 477 235 499 273 510 c 0
 317 525 365 528 411 522 c 0
 439 517 468 509 494 497 c 0
 540 477 578 445 609 406 c 0
 634 373 653 335 662 295 c 0
 678 235 672 170 649 112 c 0
 640 89 628 68 614 46 c 1
 621 56 621 55 614 46 c 1
 592 19 568 -8 539 -27 c 1
 538 -27 l 1
 520 -40 502 -50 480 -58 c 0
 424 -80 362 -86 303 -72 c 0
 280 -68 259 -61 237 -51 c 0
 174 -21 120 33 91 98 c 0
 77 129 67 161 65 195 c 2
541 -30 m 0
 571 -10 595 16 617 44 c 0
 631 66 643 87 653 110 c 0
 676 169 681 235 665 296 c 0
 655 337 637 375 612 408 c 0
 581 447 542 481 496 501 c 0
 470 513 441 521 412 526 c 0
 365 532 317 528 272 513 c 0
 233 501 198 480 167 455 c 0
 123 417 89 366 73 310 c 0
 63 280 60 249 60 218 c 2
 61 195 l 2
 63 161 73 127 87 96 c 0
 116 30 169 -23 234 -54 c 0
 256 -64 279 -72 302 -76 c 0
 361 -90 424 -84 481 -62 c 0
 503 -54 523 -44 541 -30 c 0
119 225 m 0
 116 243 87 237 92 219 c 1
 90 231 90 232 92 220 c 0
 95 202 124 208 119 225 c 0
115 224 m 2
 118 212 98 208 96 220 c 0
 93 232 113 237 115 225 c 2
 115 224 l 2
157 146 m 0
 168 100 190 58 222 24 c 0
 251 -6 289 -29 331 -37 c 0
 359 -43 388 -41 416 -34 c 0
 451 -24 484 -4 509 22 c 0
 536 49 556 81 569 117 c 0
 592 180 593 251 574 314 c 0
 566 340 554 364 539 387 c 0
 515 422 482 452 443 469 c 0
 417 481 388 486 360 485 c 0
 337 484 314 480 292 470 c 0
 266 459 245 440 223 421 c 0
 193 388 170 349 159 306 c 0
 144 254 143 198 157 146 c 0
226 418 m 0
 246 437 268 455 294 466 c 0
 316 475 338 480 361 481 c 0
 389 482 416 477 441 465 c 0
 479 449 512 420 535 385 c 0
 550 363 562 338 570 313 c 0
 589 250 588 181 565 119 c 0
 552 84 532 50 506 24 c 0
 481 -2 449 -20 415 -30 c 0
 388 -37 359 -38 332 -33 c 0
 291 -25 254 -2 225 27 c 0
 193 60 171 102 161 147 c 0
 147 198 148 253 163 304 c 0
 174 347 196 386 226 418 c 0
617 216 m 0
 629 203 648 214 640 231 c 1
 640 232 l 1
 639 232 l 1
 628 243 608 230 617 216 c 0
620 218 m 0
 615 228 629 235 636 229 c 1
 642 215 629 209 620 218 c 0
EndSplineSet
Validated: 37
EndChar

StartChar: afii10033
Encoding: 1055 1055 24
Width: 1024
VWidth: 0
Flags: MW
HStem: -82 5<97 297 98 297 98 298 98 298 438 636> 647 5<258 477 477 477> 727 5<638 638>
VStem: 137 6<8 8> 253 5<11 647 14 647 14 652> 477 6<8 652> 517 5<604 615 604 615> 593 5<643 643> 595 6<4.29497e+09 4.29497e+09 4.29497e+09 4.29497e+09>
LayerCount: 2
Fore
SplineSet
137 8 m 0xff
 136 -9 120 -23 103 -20 c 2
 102 -20 l 2
 70 -23 67 -73 97 -82 c 1
 98 -82 l 2
 166 -82 234 -86 297 -82 c 1
 298 -82 l 1
 328 -74 326 -25 295 -20 c 1
 294 -20 l 2
 280 -22 265 -15 261 -1 c 0
 259 4 258 9 258 14 c 2
 258 647 l 1
 477 647 l 1
 477 434 478 221 477 8 c 0
 476 -9 460 -23 443 -20 c 2
 442 -20 l 2
 410 -23 406 -73 436 -82 c 1
 437 -82 l 2
 505 -82 574 -86 637 -82 c 1
 667 -74 665 -25 634 -20 c 1
 619 -22 605 -15 601 -2 c 0xfe80
 594 215 597 451 598 642 c 0
 599 659 614 673 631 670 c 1
 663 672 669 721 640 732 c 1
 639 732 l 1
 459 736 260 735 101 734 c 1
 70 729 68 679 98 671 c 1
 99 671 l 2
 113 670 126 669 132 658 c 1
 147 441 138 201 137 8 c 0xff
253 14 m 2
 253 8 254 2 256 -3 c 1
 251 12 252 12 256 -3 c 1
 261 -20 277 -27 294 -25 c 1
 317 -29 322 -70 297 -77 c 1
 235 -81 167 -78 98 -77 c 1
 76 -69 77 -29 103 -25 c 1
 123 -29 142 -14 143 8 c 0
 144 201 152 442 137 659 c 1
 137 660 l 1
 130 676 113 676 99 677 c 0
 76 684 76 723 102 728 c 1
 261 729 457 731 638 727 c 1
 660 718 658 678 632 676 c 1
 612 679 594 663 593 643 c 0xff
 592 452 588 214 595 -2 c 1
 595 -3 l 1
 600 -20 617 -27 634 -25 c 1
 657 -29 661 -69 636 -77 c 1
 574 -81 507 -78 438 -77 c 1
 416 -69 416 -29 442 -25 c 1
 462 -28 481 -14 482 8 c 0
 483 222 483 435 483 649 c 2
 483 652 l 1
 253 652 l 1
 253 14 l 2
517 615 m 0
 517 586 558 596 553 621 c 0
 547 640 516 635 517 615 c 0
547 620 m 0
 551 603 522 593 522 615 c 0
 521 629 543 633 547 620 c 0
182 37 m 1
 190 9 226 18 218 44 c 0
 212 63 181 57 182 37 c 1
188 38 m 0
 188 52 209 55 213 42 c 0
 219 23 194 16 188 38 c 0
EndSplineSet
Validated: 37
EndChar

StartChar: afii10034
Encoding: 1056 1056 25
Width: 1024
VWidth: 0
Flags: MW
HStem: 17 5<111 279 112 279> 407 5<259 264> 473 5<259 297.5 264 296.5> 733 6 739 5<118 118 119 119> 796 5<112 435>
VStem: 148 6<104 104> 259 5<101 407 109 407 109 410 109 412 478 733>
LayerCount: 2
Fore
SplineSet
321 36 m 0xef
 329 58 311 82 288 78 c 0
 273 79 264 95 264 109 c 2
 264 407 l 1
 337 408 408 406 481 408 c 0
 568 414 654 472 676 559 c 0
 696 631 663 711 604 754 c 0
 556 791 493 805 434 802 c 0
 328 802 219 802 113 801 c 2
 112 801 l 1
 81 793 85 740 118 739 c 2
 119 739 l 1
 139 743 153 720 150 701 c 0
 150 502 149 303 148 104 c 0
 147 87 132 74 116 77 c 2
 115 77 l 2
 84 74 82 25 111 17 c 1
 112 17 l 2
 168 15 223 17 279 16 c 0
 294 14 316 17 321 36 c 0xef
259 109 m 2
 259 93 269 72 288 72 c 2
 289 72 l 1
 307 76 323 55 316 38 c 0
 312 23 295 20 280 22 c 2
 279 22 l 2
 223 23 169 20 112 22 c 1
 90 29 90 68 115 72 c 1
 134 69 153 84 154 104 c 0
 155 303 154 502 154 701 c 1
 153 686 152 686 154 701 c 1
 157 721 144 748 118 744 c 1
 93 745 87 789 113 796 c 1
 219 797 329 796 435 796 c 0
 494 799 554 787 601 750 c 0
 659 708 689 631 670 561 c 0
 648 477 566 419 481 413 c 0
 408 411 334 413 261 412 c 2
 259 412 l 1
 259 410 l 1
 259 109 l 2
208 106 m 0
 228 112 215 148 193 139 c 0
 176 129 189 99 208 106 c 0
206 112 m 0
 193 107 184 127 195 134 c 0
 212 140 218 116 206 112 c 0
439 733 m 1xf7
 491 726 523 673 528 623 c 0
 534 568 511 506 459 484 c 1
 394 473 331 478 264 478 c 1
 264 733 l 1
 323 733 381 735 439 733 c 1xf7
259 739 m 1xef
 259 473 l 1
 262 473 l 2
 331 473 394 468 460 479 c 1
 461 479 l 1
 517 502 541 568 534 624 c 0
 529 675 495 730 440 738 c 1
 381 740 321 739 262 739 c 2
 259 739 l 1xef
575 695 m 0
 555 689 569 654 591 663 c 0
 608 673 594 702 575 695 c 0
578 690 m 0
 591 695 600 675 589 668 c 0
 572 662 566 686 578 690 c 0
EndSplineSet
Validated: 37
EndChar
